<svg width="64" height="65" viewBox="0 0 64 65" fill="none" xmlns="http://www.w3.org/2000/svg">
<path d="M29.7364 2.20182C31.3034 1.29709 33.2341 1.29709 34.8011 2.20182L57.1403 15.0993C58.7074 16.0041 59.6727 17.6761 59.6727 19.4856V45.2806C59.6727 47.0901 58.7074 48.7621 57.1403 49.6669L34.8011 62.5644C33.2341 63.4691 31.3034 63.4691 29.7364 62.5644L7.39715 49.6669C5.8301 48.7621 4.86475 47.0901 4.86475 45.2806V19.4856C4.86475 17.6761 5.8301 16.0041 7.39715 15.0993L29.7364 2.20182Z" stroke="url(#paint0_linear_6_175)" stroke-opacity="0.3" stroke-width="1.01296"/>
<path d="M30.5064 11.3765C31.5971 10.7468 32.9409 10.7468 34.0315 11.3765L49.5796 20.3532C50.6703 20.9829 51.3421 22.1466 51.3421 23.406V41.3593C51.3421 42.6187 50.6703 43.7825 49.5796 44.4122L34.0315 53.3888C32.9409 54.0185 31.5971 54.0185 30.5064 53.3888L14.9584 44.4122C13.8677 43.7825 13.1958 42.6187 13.1958 41.3593V23.406C13.1958 22.1466 13.8677 20.9829 14.9584 20.3532L30.5064 11.3765Z" fill="url(#paint1_linear_6_175)" fill-opacity="0.2"/>
<path d="M21.9929 41.552L20 21L43.8 21.0413L41.6927 41.552L31.9898 43.9228L21.9929 41.552Z" fill="#1B73BA"/>
<path d="M31.9902 41.938V22.9573L41.7912 22.9849L40.0434 39.9669L31.9902 41.938Z" fill="#1C88C7"/>
<path d="M39.3564 25.3834H24.2793L24.6877 27.8644H31.8423L24.8021 30.4145L25.2104 32.8129H35.5831L35.2073 36.1623L31.6953 36.7413L28.5101 36.0522L28.265 34.1499H25.3411L25.733 38.106L32.0057 39.5809L38.0171 37.9682L38.7848 30.2352H32.4302L39.3562 27.8093L39.3564 25.3834Z" fill="white"/>
<defs>
<linearGradient id="paint0_linear_6_175" x1="0.625344" y1="0.739744" x2="63.9121" y2="64.0265" gradientUnits="userSpaceOnUse">
<stop stop-color="white"/>
<stop offset="0.765625" stop-color="white" stop-opacity="0"/>
</linearGradient>
<linearGradient id="paint1_linear_6_175" x1="10.2452" y1="10.3589" x2="54.2928" y2="54.4064" gradientUnits="userSpaceOnUse">
<stop stop-color="white"/>
<stop offset="0.828125" stop-color="white" stop-opacity="0"/>
</linearGradient>
</defs>
</svg>
