<svg width="64" height="64" viewBox="0 0 64 64" fill="none" xmlns="http://www.w3.org/2000/svg">
<path d="M0 0H64V64H0V0Z" fill="#F0DB4F"/>
<path d="M58.762 48.7361C58.2935 45.816 56.3893 43.3643 50.7498 41.0768C48.7909 40.1764 46.6068 39.5316 45.9559 38.0472C45.7247 37.1833 45.6943 36.6966 45.8403 36.1734C46.2601 34.4761 48.2859 33.9468 49.892 34.4335C50.9262 34.7802 51.9057 35.5773 52.4958 36.8487C55.2578 35.0602 55.2517 35.0723 57.1802 33.8434C56.4745 32.7484 56.0973 32.2434 55.635 31.775C53.9741 29.9195 51.711 28.9643 48.0912 29.0373C47.4646 29.1164 46.832 29.2015 46.2053 29.2807C44.3985 29.737 42.6768 30.686 41.6669 31.9575C38.6373 35.3948 39.5011 41.4114 43.1878 43.8875C46.8198 46.613 52.1551 47.2335 52.8365 49.7826C53.4996 52.9035 50.543 53.9133 47.6046 53.5545C45.4388 53.1043 44.2343 52.0031 42.9323 50.0016C40.5354 51.3887 40.5354 51.3887 38.0715 52.8062C38.6556 54.0837 39.27 54.6617 40.2495 55.7689C44.8852 60.4716 56.4867 60.2404 58.5674 53.1225C58.6525 52.8791 59.2122 51.2487 58.762 48.7361V48.7361ZM34.7924 29.4145H28.8061C28.8061 34.5856 28.7818 39.7202 28.7818 44.8913C28.7818 48.1825 28.9521 51.2 28.4168 52.1247C27.5407 53.9437 25.2715 53.7186 24.2373 53.3657C23.1848 52.8486 22.6495 52.1125 22.029 51.0723C21.8586 50.7742 21.7309 50.543 21.6882 50.5247C20.0639 51.5164 18.4456 52.514 16.8213 53.5057C17.6305 55.1666 18.8228 56.6084 20.3498 57.5452C22.6312 58.914 25.6973 59.3338 28.9035 58.5977C30.9902 57.9893 32.7909 56.7301 33.7338 54.8137C35.0966 52.3012 34.8046 49.2593 34.7924 45.8951C34.8228 40.4076 34.7924 34.9202 34.7924 29.4145Z" fill="#323330"/>
</svg>
