<svg width="64" height="65" viewBox="0 0 64 65" fill="none" xmlns="http://www.w3.org/2000/svg">
<path d="M29.7364 2.20182C31.3034 1.29709 33.2341 1.29709 34.8011 2.20182L57.1403 15.0993C58.7074 16.0041 59.6727 17.6761 59.6727 19.4856V45.2806C59.6727 47.0901 58.7074 48.7621 57.1403 49.6669L34.8011 62.5644C33.2341 63.4691 31.3034 63.4691 29.7364 62.5644L7.39715 49.6669C5.8301 48.7621 4.86475 47.0901 4.86475 45.2806V19.4856C4.86475 17.6761 5.8301 16.0041 7.39715 15.0993L29.7364 2.20182Z" stroke="url(#paint0_linear_5_55)" stroke-opacity="0.3" stroke-width="1.01296"/>
<path d="M30.5064 11.3765C31.5971 10.7468 32.9409 10.7468 34.0315 11.3765L49.5796 20.3532C50.6703 20.9829 51.3421 22.1466 51.3421 23.406V41.3593C51.3421 42.6187 50.6703 43.7825 49.5796 44.4122L34.0315 53.3888C32.9409 54.0185 31.5971 54.0185 30.5064 53.3888L14.9584 44.4122C13.8677 43.7825 13.1958 42.6187 13.1958 41.3593V23.406C13.1958 22.1466 13.8677 20.9829 14.9584 20.3532L30.5064 11.3765Z" fill="url(#paint1_linear_5_55)" fill-opacity="0.2"/>
<path d="M20 23C20 21.8954 20.8954 21 22 21H41.8C42.9046 21 43.8 21.8954 43.8 23V42C43.8 43.1046 42.9046 44 41.8 44H22C20.8954 44 20 43.1046 20 42V23Z" fill="#F0DB4F"/>
<path d="M41.9589 38.5845C41.8476 37.6086 41.3955 36.7893 40.0564 36.0248C39.5912 35.7239 39.0726 35.5084 38.918 35.0123C38.8631 34.7236 38.8559 34.561 38.8906 34.3861C38.9903 33.8189 39.4713 33.642 39.8527 33.8047C39.8616 33.8089 39.8704 33.8133 39.8793 33.8178C40.3024 34.0372 40.8907 34.228 41.2456 33.9099V33.9099C41.4601 33.7177 41.5079 33.4257 41.372 33.1718C41.3175 33.07 41.2693 32.9917 41.2164 32.9162C40.8451 32.3325 40.3471 32.0153 39.5729 32.0005C39.4746 31.9987 39.3764 32.0099 39.2797 32.0276C39.2333 32.036 39.1869 32.0446 39.1405 32.0531C39.0319 32.073 38.9241 32.0992 38.8235 32.1447C38.4523 32.313 38.1106 32.6034 37.8996 32.9772C37.1802 34.1259 37.3853 36.1366 38.2608 36.9641C39.1232 37.875 40.39 38.0823 40.5518 38.9342C40.7093 39.9772 40.0073 40.3147 39.3095 40.1948C39.0671 40.1239 38.8754 40.0046 38.7081 39.8283C38.3699 39.4719 37.8744 39.2733 37.4927 39.5828V39.5828C37.2506 39.779 37.0988 40.1464 37.2469 40.4205C37.3351 40.5838 37.4362 40.733 37.5631 40.9348C38.6638 42.5064 41.4186 42.4292 41.9127 40.0504C41.9329 39.9691 42.0658 39.4242 41.9589 38.5845ZM36.2676 32.8381C36.2673 32.4456 35.9491 32.1274 35.5565 32.1274V32.1274C35.164 32.1274 34.8458 32.4456 34.8455 32.8381C34.8443 34.3266 34.84 35.8086 34.84 37.2996C34.84 38.3995 34.8805 39.4079 34.7534 39.7169C34.5808 40.2213 34.1804 40.2554 33.9088 40.1851C33.8073 40.1587 33.7148 40.1047 33.6386 40.0325C33.4652 39.8683 33.3578 39.6511 33.2366 39.3652V39.3652C33.1915 39.2543 33.0943 39.2349 33.0036 39.313C32.8556 39.4405 32.7077 39.5682 32.5599 39.6958C32.2222 39.9874 32.0805 40.4646 32.3009 40.8525C32.4531 41.1203 32.6328 41.3514 32.8378 41.5284C33.3796 41.9859 34.1076 42.1262 34.8689 41.8802C35.3644 41.6769 35.792 41.256 36.0159 40.6156C36.3395 39.7759 36.2702 38.7593 36.2673 37.6351C36.2735 36.0374 36.2689 34.4398 36.2676 32.8381Z" fill="#323330"/>
<defs>
<linearGradient id="paint0_linear_5_55" x1="0.625344" y1="0.739744" x2="63.9121" y2="64.0265" gradientUnits="userSpaceOnUse">
<stop stop-color="white"/>
<stop offset="0.765625" stop-color="white" stop-opacity="0"/>
</linearGradient>
<linearGradient id="paint1_linear_5_55" x1="10.2452" y1="10.3589" x2="54.2928" y2="54.4064" gradientUnits="userSpaceOnUse">
<stop stop-color="white"/>
<stop offset="0.828125" stop-color="white" stop-opacity="0"/>
</linearGradient>
</defs>
</svg>
