<svg width="64" height="64" viewBox="0 0 64 64" fill="none" xmlns="http://www.w3.org/2000/svg">
<g clip-path="url(#clip0_5_35)">
<path fill-rule="evenodd" clip-rule="evenodd" d="M61.1934 4.77026L63.869 4.83537C63.869 4.83537 58.8946 34.6086 58.4884 37.0351C58.3564 37.8207 58.1561 38.6682 58.0544 39.7187C57.7975 42.3592 57.5337 48.1518 57.5337 48.1518L55.0855 48.2059C55.0855 48.2059 55.4665 42.1678 55.4508 38.9518C55.437 36.1424 55.1123 33.3363 54.9302 30.5187C54.746 27.6663 54.4961 22.085 54.4961 22.085H57.013L57.3602 28.2185L61.1934 4.77026" fill="#1A1918"/>
<path fill-rule="evenodd" clip-rule="evenodd" d="M56.1257 11.0494C56.6195 12.3642 56.9225 19.6171 56.9225 19.6171C56.9225 19.6171 54.3388 19.7854 52.9329 19.7854H51.7178L50.2424 48.1518H47.986C47.986 48.1518 49.3903 17.3247 49.7218 11.7358C49.8292 9.92611 50.4578 10.2367 51.5191 10.2367H53.214C54.3085 10.2367 55.5877 9.61935 56.1257 11.0494M45.6211 24.8646C45.6211 24.8646 45.6914 23.0439 45.3825 20.9352C45.1186 19.1377 44.8749 18.7195 44.1805 18.6235C42.22 18.3515 42.2581 24.7686 42.2581 24.7686L45.6211 24.8646ZM58.2519 3.70046C58.5392 8.27811 57.9916 19.034 57.9916 19.034C57.9916 19.034 55.1319 18.8232 53.5655 19.034C53.0785 19.0996 52.4955 18.8 52.3505 19.8009C52.1465 21.2034 52.4251 23.3623 52.6612 24.2743C52.9328 25.3242 53.4621 25.4439 53.6523 25.5504C54.9237 26.2638 57.5845 25.7347 57.5845 25.7347L57.1236 34.7498C57.1236 34.7498 53.3634 35.5829 51.4826 33.6C51.1113 33.2094 50.7632 32.4199 50.528 31.3005C50.4637 30.9942 50.408 30.5766 50.3473 30.2158C50.2989 29.9278 50.1575 28.9816 50.094 28.2334C49.6644 23.1774 50.1444 13.4914 50.6148 8.30073C50.6693 7.69935 50.7379 6.93632 50.8101 6.28804C50.9003 5.47977 50.9766 4.56722 51.0487 4.08391C51.0972 3.75067 51.1572 3.53604 51.2076 3.22156C51.2657 2.8497 51.3332 2.48942 51.3958 2.16777C51.5695 1.27839 51.7664 0.649424 52.0034 -0.131818C52.787 -2.72382 54.2051 -4.73596 55.9087 -3.96575C56.5501 -3.67444 57.5188 -2.66258 57.9916 0.251079C58.1183 1.02901 58.1808 2.57384 58.2519 3.70101V3.70046ZM37.3981 10.2014L39.5861 10.1446C39.5861 10.1446 38.3667 35.6933 37.7453 48.1518H35.2283C33.4693 48.1518 31.9028 49.114 31.2363 43.5515C30.5898 38.1507 31.2068 29.269 31.4966 23.2348C31.7015 18.9645 32.1329 10.2362 32.1329 10.2362L34.3998 10.1446C34.3998 10.1446 33.7592 23.7336 33.4927 30.5187C33.3972 32.949 33.2004 35.2376 33.406 37.0345C33.6012 38.7449 33.8747 38.8674 34.7077 38.9518C34.9716 38.9794 35.836 38.9518 35.836 38.9518L37.3981 10.2014M27.1574 28.6014C27.3864 25.0064 27.7206 21.1079 27.6781 17.8682C27.6321 14.4034 26.9744 11.2486 26.5499 10.5854C25.2716 8.59204 24.0748 11.3788 23.5992 13.6519C22.9838 16.5959 22.7755 20.0348 22.5577 24.7691C22.3955 28.2836 22.2626 31.994 22.5577 34.7349C23.08 39.5807 24.7091 38.5225 26.4631 38.5689C26.7234 35.4869 26.9386 32.0254 27.1574 28.6014ZM40.4357 -3.9812C40.6855 4.04529 39.7267 12.9049 39.0662 20.6091C39.7397 20.8778 40.3299 20.5678 40.3724 20.7896C40.4166 21.077 39.9209 29.9857 39.7482 30.0089C39.2137 30.0701 37.4425 30.1352 36.7039 30.1352C34.2937 30.1352 32.0391 30.8287 30.8893 25.5355C30.4224 23.3849 30.0995 19.6966 30.0213 17.1018C29.8911 12.7703 30.0543 8.00115 30.2817 4.06901C30.4875 0.518665 30.7511 -2.8314 31.1496 -5.89844C21.9216 4.69356 23.6833 -1.1023 26.6366 0.235631C27.2094 0.496045 28.0321 1.60391 28.546 2.91866C28.5815 3.0108 28.7057 3.44777 28.7342 3.52446C29.4286 5.47591 30.0613 10.133 30.1949 14.4188L40.4357 -3.9812ZM19.5315 10.2478C19.3857 13.1802 19.2399 16.5043 19.0863 19.402H16.6563C16.8445 16.1898 16.9887 12.9965 17.177 10.202C17.9546 10.202 18.6776 10.2478 19.5316 10.2478M16.5695 22.0856H18.9128C18.6064 29.5758 17.9997 41.658 17.5241 50.0685C17.2265 55.3319 17.0277 59.1725 16.2223 61.9515C16.1503 62.2009 16.1087 62.0822 16.0487 62.3349C15.9003 62.96 15.2138 63.685 14.8338 63.8682C14.2159 64.1639 13.5173 63.9068 12.7578 63.8378C12.9565 60.6296 13.1814 56.7769 13.3585 53.9013C15.2097 54.8911 15.2565 47.1625 15.6149 39.7187C15.8222 35.4174 16.4507 23.8102 16.5695 22.0856" fill="#1A1918"/>
<path fill-rule="evenodd" clip-rule="evenodd" d="M11.1026 41.6355L11.0524 42.2104C10.1967 49.5704 8.68044 54.0857 6.51774 54.2848C5.50672 54.377 4.54341 53.231 3.91411 51.9852C2.55608 49.2901 1.41378 44.292 0.789976 38.9519C-0.104882 31.2967 -0.266266 20.6479 1.5944 12.6942C1.62313 12.6942 1.36869 14.4189 1.39741 14.4189L1.3462 15.1549C0.00541409 33.6961 4.13632 49.5858 8.15194 47.7684C9.117 47.3315 10.3476 44.9971 11.1026 41.6355Z" fill="#21609B"/>
<path fill-rule="evenodd" clip-rule="evenodd" d="M8.67172 33.9687C9.682 33.999 10.7372 31.9135 11.3622 28.9855C10.8154 35.1152 9.23244 39.055 7.10972 37.8021C5.33224 36.7516 3.63909 28.8514 3.46471 20.9353C3.33718 15.1742 3.79173 11.7359 4.54081 7.56482C4.2805 9.74634 4.18319 11.4285 4.15896 12.5016C3.87442 24.964 6.41284 33.903 8.67172 33.9687" fill="#21609B"/>
<path fill-rule="evenodd" clip-rule="evenodd" d="M11.262 18.4895C11.105 20.0806 10.2008 23.0853 9.80144 23.4611C8.2202 24.9491 7.20755 21.6371 6.67706 17.8682C6.59824 17.3055 6.45247 15.7684 6.42636 15.3772C6.22064 12.2875 6.31519 7.61444 6.92888 5.19568C6.74401 7.49582 6.71703 10.1673 6.81434 11.9041C6.87329 12.954 7.05291 14.7874 7.23266 15.9405C7.55968 18.0409 7.76715 18.5513 8.18723 19.6669C8.37646 20.1689 8.57944 20.5717 8.66713 20.682C9.06547 21.2001 9.90649 22.5645 11.2621 18.4895" fill="#21609B"/>
</g>
<defs>
<clipPath id="clip0_5_35">
<rect width="64" height="64" fill="white"/>
</clipPath>
</defs>
</svg>
