<svg width="64" height="65" viewBox="0 0 64 65" fill="none" xmlns="http://www.w3.org/2000/svg">
<path d="M29.7364 2.20182C31.3034 1.29709 33.2341 1.29709 34.8011 2.20182L57.1403 15.0993C58.7074 16.0041 59.6727 17.6761 59.6727 19.4856V45.2806C59.6727 47.0901 58.7074 48.7621 57.1403 49.6669L34.8011 62.5644C33.2341 63.4691 31.3034 63.4691 29.7364 62.5644L7.39715 49.6669C5.8301 48.7621 4.86475 47.0901 4.86475 45.2806V19.4856C4.86475 17.6761 5.8301 16.0041 7.39715 15.0993L29.7364 2.20182Z" stroke="url(#paint0_linear_7_15)" stroke-opacity="0.3" stroke-width="1.01296"/>
<path d="M30.5064 11.3765C31.5971 10.7468 32.9409 10.7468 34.0315 11.3765L49.5796 20.3532C50.6703 20.9829 51.3421 22.1466 51.3421 23.406V41.3593C51.3421 42.6187 50.6703 43.7825 49.5796 44.4122L34.0315 53.3888C32.9409 54.0185 31.5971 54.0185 30.5064 53.3888L14.9584 44.4122C13.8677 43.7825 13.1958 42.6187 13.1958 41.3593V23.406C13.1958 22.1466 13.8677 20.9829 14.9584 20.3532L30.5064 11.3765Z" fill="url(#paint1_linear_7_15)" fill-opacity="0.2"/>
<path d="M29.3871 30.8531L29.3873 30.8528L29.1649 31.71L29.3871 30.8531ZM30.5305 32.714L30.2856 32.7125L30.5305 32.714ZM30.4676 33.9941H30.4678L29 34L30.4676 33.9941ZM30.7753 32.7157L30.5302 32.714L30.7753 32.7157ZM30.5963 33.8854L30.8518 32.8246L30.5963 33.8856V33.8854ZM36 29.0002L35.5237 31.4361L36 29.0002ZM34.7757 29.0002L34.4142 30.8199L34.7757 29V29.0002Z" fill="white"/>
<path d="M36.2479 29H35.0809C35.0162 29 34.952 29.0479 34.9381 29.1062L34.5238 30.872L34.1095 32.6378C34.0958 32.696 34.0316 32.7438 33.967 32.7438H33.1408C32.3237 32.7438 32.4182 32.2231 32.5856 31.5098L32.5906 31.4883L32.6088 31.3983L32.6123 31.3814L32.6496 31.1982L32.6896 31.0021C32.7017 30.943 32.7201 30.8565 32.7322 30.8021L32.9205 29.9544L33.109 29.1067C33.1221 29.0482 33.0796 29.0001 33.0147 29.0001H31.817C31.7522 29.0001 31.6881 29.0482 31.6749 29.1065L31.4174 30.2322L31.1598 31.3578C31.1596 31.3582 31.1594 31.359 31.1594 31.3594L31.1354 31.464C30.8389 32.7117 30.9176 33.9015 32.5298 33.9386C32.5562 33.9394 32.5766 33.9395 32.5766 33.9395H35.1073C35.1721 33.9395 35.2362 33.8917 35.2498 33.8333L35.7955 31.47L36.3413 29.1065C36.3546 29.0479 36.3126 29.0001 36.2479 29ZM40.9035 32.756C40.9683 32.756 41.0106 32.8039 40.9977 32.8623L40.8844 33.3725M40.7711 33.883L40.8845 33.3725L40.7711 33.8831V33.883ZM40.6291 33.9904L40.6296 33.9903C40.2862 33.9928 39.2542 34 38.4785 34C39.4224 34 40.6289 33.9904 40.6291 33.9904ZM37.7822 32.0988C37.7814 32.043 37.8504 31.9468 37.9153 31.9468L37.7695 31.9445C37.7038 32.553 37.7822 32.0988 37.7822 32.0988Z" fill="white"/>
<path d="M38.7272 34.0415C38.7202 34.0415 38.7132 34.0415 38.7062 34.0416C38.7132 34.0415 38.7202 34.0415 38.7272 34.0415ZM40.9091 32.7905C40.9702 32.7905 41.01 32.8387 40.9978 32.8974L40.8912 33.4106L40.8739 33.4943M39.2472 34.0403H39.2427H39.2472ZM38.9776 34.0412H38.9619H38.9776ZM38.8954 34.0413C38.8866 34.0413 38.878 34.0413 38.8694 34.0415C38.878 34.0413 38.8866 34.0413 38.8954 34.0413ZM38.8117 34.0415H38.789H38.8117ZM38.9619 34.0412L38.8952 34.0413L38.9619 34.0412ZM39.2429 34.0403C39.154 34.0407 39.0654 34.041 38.9779 34.0412C39.0654 34.041 39.1542 34.0407 39.2429 34.0403ZM40.7847 33.9244L40.874 33.4943L40.7846 33.9247L40.7847 33.9244ZM38.8696 34.0415H38.8115H38.8696ZM38.7058 34.0416H38.6273H38.7058ZM38.7887 34.0415H38.7269H38.7887ZM22.7247 32.1424L22.8953 31.3978L22.7002 32.2489L22.513 33.1159L22.6771 32.3558C22.6897 32.2971 22.7112 32.2009 22.7247 32.1424ZM24.7664 29H23.5603C23.4993 29 23.4386 29.048 23.4248 29.1064L23.3104 29.6034L23.1961 30.1006C23.1827 30.1591 23.2214 30.207 23.2824 30.207H24.4979C24.5589 30.207 24.6193 30.1591 24.6325 30.1004L24.743 29.6034L24.8535 29.1067V29.1066C24.8666 29.048 24.8274 29 24.7664 29ZM24.504 30.6533V30.6531L24.1502 32.2644L24.504 30.6533ZM21.0005 35.9923C21.0005 35.9923 21.6083 36 21.9949 36C21.7014 36 21.2164 35.9947 21 35.9922L21.0005 35.9923ZM23.0658 30.6531L22.895 31.3978L23.0658 30.6531Z" fill="white"/>
<path d="M24.4401 30.842H23.2469C23.1871 30.842 23.1273 30.8874 23.1142 30.9428L22.9465 31.6471L22.779 32.3514C22.7659 32.4067 22.7447 32.4977 22.7323 32.5534L22.5712 33.2722L22.4103 33.991C22.3946 34.0582 22.3754 34.1246 22.3529 34.1899C22.3529 34.1899 22.1301 34.8192 21.7554 34.8121C21.7393 34.8118 21.7238 34.8116 21.7085 34.8112C21.5269 34.8079 21.3843 34.8055 21.3843 34.8055H21.384C21.3242 34.8047 21.2643 34.8489 21.2502 34.904L21.1265 35.3976L21.0029 35.8909C20.9891 35.946 21.0265 35.9916 21.0861 35.9925C21.2986 35.9949 21.7746 36 22.0626 36C22.9986 36 23.4922 35.5078 23.8085 34.092L24.1785 32.4668L24.5258 30.9428C24.5385 30.8874 24.4999 30.842 24.4401 30.842ZM41.3895 34.0903C41.3297 34.0903 41.2909 34.0447 41.3035 33.989L42.201 30M42.637 33.9889L43 32.2864L42.637 33.9889Z" fill="white"/>
<path d="M41.0152 33.9514C41.008 33.9246 41.0122 33.8591 41.0246 33.8055L41.4414 31.9829L41.0023 33.9027C40.99 33.9561 41.0279 34 41.0866 34H41.1931C41.1345 34 41.0222 33.9781 41.0152 33.9514ZM42.2374 33.9781C42.2057 33.9901 42.1315 34 42.073 34H42.1796C42.2382 34 42.2956 33.9561 42.3072 33.9026L42.3283 33.8051C42.3166 33.8586 42.2694 33.966 42.2374 33.9781ZM42.4848 33.083L42.6414 32.3597C42.6413 32.3601 42.6413 32.3608 42.6411 32.3611L42.4848 33.083ZM45.949 30.3201L45.9973 30.5066C46.0106 30.5601 45.9737 30.6034 45.9153 30.6035M42.3281 33.8051L42.4845 33.083L42.3281 33.8051ZM45.9009 30.129L45.9487 30.3201L45.9009 30.129ZM42.6413 32.3597C42.653 32.3063 42.6723 32.2195 42.6844 32.1665L42.8519 31.4343L42.6623 32.2637L42.6413 32.3597ZM41.8948 30C41.8832 30.0517 41.8683 30.1169 41.8585 30.1601L41.4418 31.9829L41.8807 30.0629L41.8948 30Z" fill="white"/>
<path d="M45.9973 30.1288L45.9487 29.9221L45.9008 29.7103L45.8765 29.6031C45.7815 29.222 45.5025 29.0021 44.8968 29.0021L43.9537 29.0011L43.0852 29H42.108C42.0493 29 41.9913 29.0483 41.9793 29.1077H41.9791L41.9358 29.3183L41.8849 29.5672L41.8708 29.6369L41.4306 31.7645L41.0129 33.7843C41.0004 33.8437 40.9964 33.9163 41.0035 33.9459C41.0105 33.9757 41.1231 34 41.1818 34H42.0636C42.1223 34 42.1965 33.9891 42.2284 33.9757C42.2604 33.9623 42.3077 33.8433 42.3195 33.7839L42.4762 32.9839L42.6331 32.1838L42.6334 32.1822L42.6542 32.0757L42.8443 31.1566L43.0122 30.3448C43.0246 30.2858 43.0825 30.2375 43.1409 30.2374L45.9151 30.236C45.9735 30.236 46.0106 30.1879 45.9973 30.1288Z" fill="white"/>
<path d="M48.6359 28.5792C48.5816 28.5796 48.4932 28.5799 48.439 28.5799H47.6201C47.5658 28.5799 47.4966 28.6181 47.466 28.6649L45.6553 31.4386C45.6247 31.4856 45.5898 31.4785 45.5777 31.4235L45.4446 30.8124C45.4325 30.757 45.3782 30.712 45.3241 30.712H44.1599C44.1059 30.712 44.0737 30.7565 44.0886 30.8109L44.6102 32.7216C44.6251 32.7759 44.6261 32.8655 44.6128 32.9202L44.3854 33.8451C44.372 33.9 44.4052 33.9448 44.4594 33.9448H45.6099C45.6641 33.9448 45.7194 33.9 45.7328 33.8451L45.9602 32.9202C45.9736 32.8655 46.0113 32.7835 46.0439 32.7383L48.9836 28.6586C49.0163 28.6134 48.9985 28.5766 48.9445 28.5771L48.6359 28.5792ZM39.3876 30.9721L39.3874 30.971C39.3806 31.0324 39.3264 31.0774 39.2724 31.0774H37.7965C37.7455 31.0774 37.7196 31.0411 37.7271 30.9964C37.7275 30.9951 37.7278 30.994 37.7285 30.9928C37.7285 30.9928 37.7279 30.993 37.7275 30.9933C37.7278 30.9916 37.7278 30.9899 37.7283 30.9882L37.735 30.9618C37.8761 30.57 38.1631 30.3128 38.7027 30.3128C39.3102 30.3128 39.4288 30.6232 39.3876 30.9721ZM38.9546 29.1909C37.0601 29.1909 36.6113 30.3932 36.3595 31.6066C36.1075 32.8436 36.1293 34 38.0896 34H38.1592C38.1654 33.9999 38.1717 33.9999 38.1779 33.9999H38.3044C38.312 33.9997 38.3195 33.9997 38.3273 33.9997L38.3865 33.9996H38.4002C38.4779 33.9996 38.5566 33.9992 38.6355 33.9989H38.6394C39.1571 33.9967 39.6763 33.9926 39.8866 33.9909C39.9405 33.9901 39.993 33.9447 40.0041 33.8898L40.0835 33.4842L40.0989 33.4052L40.1935 32.9215C40.2045 32.866 40.169 32.8206 40.1148 32.8206H38.3525C37.6516 32.8206 37.4434 32.626 37.5201 32.0533H40.3374L40.3371 32.0536C40.3378 32.0536 40.3383 32.0533 40.339 32.0533C40.3838 32.0525 40.4251 32.0202 40.4416 31.9773C40.4446 31.969 40.4474 31.9605 40.4484 31.9516L40.4481 31.9519C40.8663 30.3021 40.7463 29.191 38.9544 29.191L38.9546 29.1909ZM30.0008 30.9657L29.9742 31.0645V31.0648L29.7615 31.8531L29.5487 32.6413C29.534 32.6956 29.4778 32.7402 29.4235 32.7402H28.2976C27.4436 32.7402 27.2356 32.0418 27.4436 31.0116C27.6514 29.9578 28.0591 29.3028 28.8998 29.2364C30.0484 29.1459 30.2782 29.9907 30.0008 30.9657ZM30.7729 32.6796C30.7729 32.6796 31.3038 31.3319 31.4244 30.5534C31.5889 29.5112 31.0899 28 29.1625 28C27.2461 28 26.4139 29.4429 26.0965 31.0114C25.779 32.5913 26.195 33.977 28.1004 33.9657L29.6036 33.9598L31.0085 33.9545C31.0627 33.954 31.118 33.909 31.1319 33.8544L31.3764 32.8784C31.3902 32.8236 31.357 32.7785 31.303 32.7782L31.0684 32.7768L30.8339 32.7754C30.7879 32.7749 30.7614 32.7439 30.7671 32.7024C30.7681 32.6946 30.77 32.6868 30.7728 32.6795L30.7729 32.6796Z" fill="white"/>
<path d="M15.3254 29.5313C14.8718 30.3028 14.9282 31.3065 15.2746 32.1262C15.283 32.1459 15.2916 32.1652 15.3001 32.1846C15.3055 32.1967 15.3106 32.2093 15.3163 32.2215C15.3196 32.2286 15.3231 32.2358 15.3264 32.2427C15.3324 32.2557 15.3384 32.2681 15.3445 32.2808C15.3552 32.3034 15.3662 32.3257 15.3775 32.348C15.3838 32.3602 15.39 32.3726 15.3964 32.3848C15.4089 32.4087 15.4217 32.4322 15.4349 32.4559C15.4403 32.4659 15.4456 32.476 15.4512 32.4857C15.4692 32.5177 15.4878 32.5493 15.5068 32.5807L15.5083 32.5832C15.5114 32.5883 15.5146 32.5931 15.5177 32.5981C15.5342 32.625 15.5512 32.6516 15.5684 32.6779C15.5747 32.6874 15.5812 32.697 15.5876 32.7065C15.6087 32.738 15.6303 32.7691 15.6522 32.8C15.6739 32.8304 15.6962 32.8603 15.7187 32.8897C15.7197 32.8911 15.7205 32.8918 15.7212 32.893C15.7666 32.9513 15.8135 33.0078 15.8618 33.0626C15.8691 33.0707 15.8763 33.0791 15.8835 33.0868C15.9076 33.1138 15.9322 33.1402 15.9572 33.1661C15.9613 33.1705 15.9657 33.1747 15.9698 33.1789C15.9914 33.2011 16.0135 33.2231 16.0357 33.2447C16.0447 33.2534 16.0539 33.2619 16.063 33.2705C16.0811 33.2877 16.0995 33.3046 16.1179 33.3212L16.1472 33.3477C16.1677 33.3654 16.1882 33.3829 16.2089 33.4C16.2165 33.4065 16.2238 33.4128 16.2314 33.4188C16.2335 33.4206 16.2354 33.4224 16.2375 33.4241C16.2573 33.44 16.2773 33.4555 16.2974 33.471C16.3061 33.4778 16.3146 33.4848 16.3234 33.4914C16.3542 33.5145 16.3856 33.5372 16.4172 33.5592C16.4257 33.5652 16.4344 33.5708 16.4431 33.5766C16.4664 33.5925 16.4898 33.6081 16.5134 33.6234C16.5262 33.6315 16.5394 33.6392 16.5524 33.6471C16.5691 33.6574 16.5857 33.668 16.6027 33.678C16.6065 33.6802 16.6106 33.6824 16.6144 33.6846C16.6211 33.6886 16.6282 33.6923 16.6349 33.6965C16.667 33.7146 16.6992 33.7323 16.7316 33.7492C16.7624 33.765 16.7934 33.7803 16.8248 33.7949C16.8323 33.7986 16.8399 33.802 16.8473 33.8055C16.8801 33.8205 16.913 33.8348 16.9462 33.8484C16.9786 33.8619 17.0113 33.8743 17.0442 33.8864C17.052 33.8892 17.0599 33.8921 17.0678 33.8948C17.1013 33.9068 17.1345 33.921 17.1689 33.9285C19.3627 34.4019 20 32.3686 20 32.3686C19.4648 33.1937 18.5149 33.4111 17.6147 33.169C17.5806 33.1598 17.5476 33.1473 17.5142 33.1357C17.4733 33.1212 17.4328 33.1058 17.3925 33.0895L17.3792 33.0837C17.3506 33.0717 17.3222 33.0593 17.2939 33.0464C17.286 33.0425 17.278 33.0389 17.27 33.0352C17.2392 33.0208 17.2084 33.0056 17.178 32.9899C17.1718 32.9868 17.1657 32.9835 17.1596 32.9803C17.1259 32.9623 17.0926 32.9438 17.0594 32.9248C17.0392 32.9131 17.0193 32.9007 16.9993 32.8886C16.986 32.8804 16.9724 32.8724 16.9593 32.8637C16.935 32.8483 16.911 32.8325 16.8873 32.8159C16.8792 32.8106 16.871 32.8055 16.8629 32.8C16.8313 32.7778 16.8001 32.7553 16.7692 32.732C16.7606 32.7255 16.7523 32.7186 16.7439 32.712C16.7213 32.6948 16.6991 32.6773 16.6771 32.6595C16.6697 32.6537 16.6627 32.6473 16.6555 32.6417C16.6343 32.6239 16.6133 32.6059 16.5925 32.5877C16.583 32.5793 16.5736 32.5709 16.5645 32.5627C16.5368 32.5375 16.5094 32.5119 16.4822 32.486C16.4583 32.4628 16.4346 32.4392 16.4113 32.4153L16.4035 32.4076C16.3783 32.3813 16.3534 32.3546 16.3289 32.3273C16.3218 32.3193 16.3149 32.3115 16.308 32.3035C16.2898 32.2831 16.272 32.2623 16.2544 32.2413C16.2474 32.233 16.2403 32.2248 16.2334 32.2165C16.211 32.1895 16.1892 32.162 16.1677 32.1343L16.1645 32.1302C16.1417 32.1007 16.1194 32.0709 16.0977 32.0405C16.0919 32.0321 16.0861 32.0241 16.0802 32.016C16.0641 31.9928 16.048 31.9694 16.0324 31.9458C16.0264 31.9372 16.0205 31.9286 16.0148 31.9199C15.9959 31.8908 15.9774 31.8619 15.9593 31.8326C15.4596 31.0261 15.2801 29.9136 15.6794 29" fill="#0868AC"/>
<path d="M16.3387 29.3652C15.8877 29.8209 15.9122 30.431 16.264 30.913C16.3228 30.9939 16.3897 31.0721 16.4635 31.1468C16.5311 31.2148 16.6059 31.2957 16.6958 31.3504C16.7283 31.3755 16.7623 31.4 16.7969 31.4241C16.8057 31.4304 16.8147 31.4364 16.8237 31.4427C16.8573 31.4656 16.8916 31.4882 16.9271 31.5101C16.9285 31.5108 16.9298 31.5118 16.9312 31.5126C16.9316 31.513 16.932 31.513 16.9323 31.5133C16.9713 31.5374 17.0119 31.5607 17.053 31.5835C17.0622 31.5883 17.0711 31.5935 17.0805 31.5985C17.1216 31.6207 17.1636 31.6424 17.2067 31.6632C17.208 31.6639 17.2092 31.6646 17.2105 31.6652C17.2294 31.6745 17.2489 31.683 17.2681 31.6919C17.2773 31.6961 17.2861 31.7006 17.2954 31.7045C17.3261 31.7185 17.3573 31.7319 17.389 31.7449C17.3936 31.7468 17.3978 31.7485 17.4023 31.7502C17.4295 31.7613 17.4573 31.7721 17.4851 31.7827C17.4947 31.7865 17.5045 31.7899 17.5145 31.7935C17.5337 31.8006 17.5529 31.8077 17.5723 31.8145C17.5752 31.8155 17.5783 31.8164 17.5811 31.8173C17.6208 31.8311 17.6608 31.8444 17.7018 31.8568C17.7107 31.8595 17.7196 31.862 17.7285 31.8645C17.7613 31.8742 17.7943 31.8838 17.8274 31.8928C17.8415 31.8965 17.8559 31.9001 17.8698 31.9036C17.9 31.9115 17.9304 31.9187 17.9607 31.9259C17.9746 31.9289 17.988 31.9321 18.0019 31.9351C18.0452 31.9445 18.0882 31.9564 18.1332 31.9618C20.4623 32.2327 21 30.9737 21 30.9737C20.5152 31.4639 19.5766 31.6976 18.5751 31.5151C18.5174 31.5044 18.4603 31.4925 18.4036 31.4794C18.3585 31.4691 18.3139 31.4581 18.2696 31.446C18.2363 31.4372 18.2032 31.4277 18.1703 31.418C18.1615 31.4153 18.1523 31.4128 18.1437 31.41C18.1027 31.3975 18.0622 31.3843 18.0222 31.3705C18.0016 31.3634 17.9813 31.356 17.9612 31.3487L17.9261 31.3359C17.9001 31.326 17.8745 31.3159 17.849 31.3054C17.843 31.303 17.8366 31.3006 17.8306 31.2981C17.799 31.2851 17.768 31.2719 17.7373 31.2581C17.7276 31.2538 17.7187 31.2492 17.709 31.2449C17.6888 31.2356 17.6685 31.2263 17.6486 31.2167C17.6059 31.196 17.564 31.1744 17.5226 31.1522C17.5132 31.1469 17.5037 31.1417 17.4944 31.1364C17.056 30.8934 16.7083 30.5614 16.5432 30.1848C16.3701 29.7943 16.4073 29.3559 16.7074 29" fill="#0868AC"/>
<defs>
<linearGradient id="paint0_linear_7_15" x1="0.625341" y1="0.739742" x2="63.9121" y2="64.0265" gradientUnits="userSpaceOnUse">
<stop stop-color="white"/>
<stop offset="0.765625" stop-color="white" stop-opacity="0"/>
</linearGradient>
<linearGradient id="paint1_linear_7_15" x1="10.2452" y1="10.3589" x2="54.2928" y2="54.4064" gradientUnits="userSpaceOnUse">
<stop stop-color="white"/>
<stop offset="0.828125" stop-color="white" stop-opacity="0"/>
</linearGradient>
</defs>
</svg>
