<svg width="64" height="65" viewBox="0 0 64 65" fill="none" xmlns="http://www.w3.org/2000/svg">
<path d="M29.7364 2.20182C31.3034 1.29709 33.2341 1.29709 34.8011 2.20182L57.1403 15.0993C58.7074 16.0041 59.6727 17.6761 59.6727 19.4856V45.2806C59.6727 47.0901 58.7074 48.7621 57.1403 49.6669L34.8011 62.5644C33.2341 63.4691 31.3034 63.4691 29.7364 62.5644L7.39715 49.6669C5.8301 48.7621 4.86475 47.0901 4.86475 45.2806V19.4856C4.86475 17.6761 5.8301 16.0041 7.39715 15.0993L29.7364 2.20182Z" stroke="url(#paint0_linear_6_183)" stroke-opacity="0.3" stroke-width="1.01296"/>
<path d="M30.5064 11.3765C31.5971 10.7468 32.9409 10.7468 34.0315 11.3765L49.5796 20.3532C50.6703 20.9829 51.3421 22.1466 51.3421 23.406V41.3593C51.3421 42.6187 50.6703 43.7825 49.5796 44.4122L34.0315 53.3888C32.9409 54.0185 31.5971 54.0185 30.5064 53.3888L14.9584 44.4122C13.8677 43.7825 13.1958 42.6187 13.1958 41.3593V23.406C13.1958 22.1466 13.8677 20.9829 14.9584 20.3532L30.5064 11.3765Z" fill="url(#paint1_linear_6_183)" fill-opacity="0.2"/>
<path d="M30.2571 31.16L30.2572 31.1598L30.1036 31.7156L30.2571 31.16ZM31.0469 32.3666L30.8777 32.3656L31.0469 32.3666ZM31.0034 33.1966H31.0036L29.9897 33.2004L31.0034 33.1966ZM31.216 32.3677L31.0467 32.3666L31.216 32.3677ZM31.0923 33.1261L31.2688 32.4383L31.0923 33.1262V33.1261ZM34.8249 29.9586L34.4959 31.538L34.8249 29.9586V29.9586ZM33.9792 29.9586L33.7295 31.1385L33.9792 29.9585V29.9586V29.9586Z" fill="#131B28"/>
<path d="M34.7685 29.8875H34.065C34.026 29.8875 33.9873 29.9195 33.9789 29.9585L33.7292 31.1385L33.4794 32.3185C33.4712 32.3574 33.4325 32.3893 33.3935 32.3893H32.8955C32.4029 32.3893 32.4599 32.0414 32.5608 31.5647L32.5638 31.5503L32.5748 31.4902L32.5769 31.4789L32.5994 31.3565L32.6235 31.2254C32.6308 31.1859 32.6419 31.1281 32.6492 31.0918L32.7627 30.5253L32.8763 29.9588C32.8842 29.9197 32.8586 29.8876 32.8195 29.8876H32.0975C32.0584 29.8876 32.0198 29.9197 32.0118 29.9587L31.8566 30.7109L31.7013 31.4631C31.7012 31.4634 31.7011 31.4639 31.7011 31.4642L31.6866 31.5341C31.5079 32.3679 31.5553 33.163 32.5272 33.1878C32.5431 33.1883 32.5554 33.1884 32.5554 33.1884H34.0809C34.12 33.1884 34.1586 33.1564 34.1668 33.1174L34.4958 31.5381L34.8248 29.9587C34.8328 29.9195 34.8075 29.8876 34.7685 29.8875V29.8875ZM37.5749 32.3975C37.614 32.3975 37.6395 32.4295 37.6317 32.4685L37.5634 32.8095M37.4951 33.1506L37.5635 32.8095L37.4951 33.1507L37.4951 33.1506V33.1506ZM37.4095 33.2224L37.4098 33.2223C37.2028 33.224 36.5807 33.2288 36.1131 33.2288C36.6821 33.2288 37.4094 33.2224 37.4095 33.2224V33.2224ZM35.6934 31.9583C35.6929 31.921 35.7345 31.8567 35.7736 31.8567L35.6857 31.8552C35.6461 32.2618 35.6934 31.9583 35.6934 31.9583Z" fill="#131B28"/>
<path d="M36.1771 33.2286C36.1726 33.2286 36.1681 33.2286 36.1636 33.2287C36.1681 33.2286 36.1726 33.2286 36.1771 33.2286ZM37.5748 32.3975C37.6139 32.3975 37.6394 32.4295 37.6316 32.4685L37.5633 32.8095L37.5522 32.8651M36.5102 33.2278H36.5073H36.5102ZM36.3375 33.2284H36.3274H36.3375ZM36.2848 33.2285C36.2792 33.2285 36.2737 33.2285 36.2682 33.2286C36.2737 33.2285 36.2792 33.2285 36.2848 33.2285ZM36.2312 33.2286H36.2167H36.2312ZM36.3274 33.2284L36.2847 33.2285L36.3274 33.2284ZM36.5074 33.2278C36.4505 33.2281 36.3937 33.2283 36.3377 33.2284C36.3937 33.2283 36.4506 33.2281 36.5074 33.2278ZM37.4951 33.1508L37.5523 32.8651L37.495 33.151L37.4951 33.1508ZM36.2683 33.2286H36.2311H36.2683ZM36.1634 33.2287H36.1131H36.1634ZM36.2165 33.2286H36.1769H36.2165ZM25.9261 31.9669L26.0354 31.4722L25.9104 32.0377L25.7905 32.6137L25.8956 32.1087C25.9037 32.0697 25.9175 32.0058 25.9261 31.9669V31.9669ZM27.234 29.8792H26.4614C26.4223 29.8792 26.3834 29.9111 26.3746 29.9499L26.3013 30.2801L26.2281 30.6104C26.2195 30.6493 26.2443 30.6811 26.2834 30.6811H27.062C27.1011 30.6811 27.1398 30.6493 27.1482 30.6103L27.219 30.2801L27.2898 29.9501V29.95C27.2982 29.9111 27.2731 29.8792 27.234 29.8792V29.8792ZM27.0659 30.9776V30.9775L26.8393 32.048L27.0659 30.9776V30.9776ZM24.8216 34.5247C24.8216 34.5247 25.211 34.5298 25.4586 34.5298C25.2706 34.5298 24.9599 34.5263 24.8213 34.5246L24.8216 34.5247V34.5247ZM26.1446 30.9775L26.0352 31.4722L26.1446 30.9775Z" fill="#131B28"/>
<path d="M27.0101 30.9067H26.2314C26.1924 30.9067 26.1534 30.9386 26.1448 30.9775L26.0354 31.4722L25.9261 31.9669C25.9175 32.0058 25.9037 32.0697 25.8956 32.1088L25.7905 32.6137L25.6855 33.1186C25.6752 33.1658 25.6627 33.2124 25.648 33.2583C25.648 33.2583 25.5026 33.7003 25.2581 33.6953C25.2476 33.6951 25.2375 33.695 25.2275 33.6947C25.109 33.6924 25.0159 33.6907 25.0159 33.6907H25.0157C24.9767 33.6901 24.9376 33.7212 24.9284 33.7599L24.8477 34.1066L24.767 34.4531C24.758 34.4918 24.7824 34.5238 24.8213 34.5244C24.96 34.5261 25.2706 34.5297 25.4586 34.5297C26.0694 34.5297 26.3915 34.184 26.5979 33.1895L26.8394 32.048L27.066 30.9775C27.0743 30.9386 27.0491 30.9067 27.0101 30.9067V30.9067ZM38.071 33.1883C38.032 33.1883 38.0067 33.1563 38.0149 33.1172L38.6006 30.3153M38.8851 33.1171L39.122 31.9213L38.8851 33.1171Z" fill="#131B28"/>
<path d="M38.0233 33.1528C38.0185 33.1333 38.0213 33.0855 38.0296 33.0464L38.3076 31.7164L38.0147 33.1173C38.0065 33.1563 38.0318 33.1883 38.0709 33.1883H38.142C38.1029 33.1883 38.028 33.1723 38.0233 33.1528ZM38.8387 33.1723C38.8175 33.1811 38.768 33.1883 38.729 33.1883H38.8001C38.8392 33.1883 38.8775 33.1563 38.8852 33.1172L38.8993 33.0461C38.8915 33.0851 38.86 33.1635 38.8387 33.1723V33.1723ZM39.0037 32.5192L39.1082 31.9914C39.1081 31.9917 39.1081 31.9922 39.108 31.9924L39.0037 32.5192V32.5192ZM41.3148 30.5031L41.347 30.6392C41.3559 30.6782 41.3313 30.7098 41.2923 30.7099M38.8992 33.0461L39.0035 32.5192L38.8992 33.0461ZM41.2827 30.3636L41.3146 30.5031L41.2827 30.3636ZM39.1081 31.9914C39.1159 31.9524 39.1288 31.8891 39.1369 31.8504L39.2486 31.3161L39.1221 31.9213L39.1081 31.9914V31.9914ZM38.6101 30.2695C38.6024 30.3072 38.5924 30.3548 38.5859 30.3863L38.3079 31.7164L38.6007 30.3154L38.6101 30.2695Z" fill="#131B28"/>
<path d="M41.3467 30.6392L41.3144 30.5031L41.2825 30.3636L41.2663 30.293C41.2031 30.0421 41.0174 29.8973 40.6143 29.8973L39.9867 29.8966L39.4087 29.8959H38.7584C38.7193 29.8959 38.6807 29.9277 38.6727 29.9668H38.6726L38.6438 30.1055L38.6099 30.2694L38.6005 30.3153L38.3076 31.7163L38.0296 33.0463C38.0213 33.0854 38.0186 33.1332 38.0233 33.1527C38.028 33.1723 38.1029 33.1883 38.142 33.1883H38.7288C38.7679 33.1883 38.8173 33.1811 38.8385 33.1723C38.8598 33.1635 38.8913 33.0851 38.8991 33.046L39.0034 32.5192L39.1078 31.9924L39.108 31.9913L39.1219 31.9212L39.2484 31.316L39.3601 30.7814C39.3684 30.7426 39.4069 30.7108 39.4458 30.7107L41.292 30.7098C41.3309 30.7098 41.3556 30.6781 41.3467 30.6392V30.6392Z" fill="#131B28"/>
<path d="M43.7235 29.4082C43.6843 29.4085 43.6205 29.4087 43.5814 29.4087H42.9905C42.9513 29.4087 42.9014 29.4356 42.8793 29.4686L41.5727 31.4235C41.5506 31.4566 41.5254 31.4516 41.5167 31.4128L41.4206 30.9821C41.4119 30.9431 41.3727 30.9114 41.3337 30.9114H40.4936C40.4546 30.9114 40.4314 30.9427 40.4421 30.9811L40.8185 32.3277C40.8293 32.366 40.83 32.4291 40.8204 32.4677L40.6563 33.1195C40.6466 33.1582 40.6706 33.1898 40.7097 33.1898H41.5399C41.579 33.1898 41.6189 33.1582 41.6286 33.1195L41.7927 32.4677C41.8024 32.4291 41.8296 32.3713 41.8531 32.3395L43.9744 29.4642C43.998 29.4323 43.9852 29.4064 43.9462 29.4067L43.7235 29.4082V29.4082ZM37.0498 31.0947L37.0497 31.0939C37.0448 31.1372 37.0057 31.1689 36.9667 31.1689H35.9017C35.8649 31.1689 35.8462 31.1433 35.8516 31.1118C35.8519 31.1109 35.8521 31.1101 35.8526 31.1093C35.8526 31.1093 35.8522 31.1094 35.8519 31.1096C35.8521 31.1084 35.8521 31.1072 35.8525 31.106L35.8573 31.0874C35.9591 30.8113 36.1662 30.63 36.5556 30.63C36.994 30.63 37.0796 30.8488 37.0498 31.0947V31.0947ZM36.7374 29.8393C35.3703 29.8393 35.0464 30.6867 34.8647 31.5419C34.6829 32.4137 34.6986 33.2287 36.1132 33.2287H36.1634C36.1679 33.2286 36.1724 33.2286 36.1769 33.2286H36.2682C36.2737 33.2285 36.2791 33.2285 36.2847 33.2285L36.3274 33.2284H36.3373C36.3934 33.2284 36.4502 33.2281 36.5071 33.2279H36.5099C36.8835 33.2264 37.2582 33.2235 37.4099 33.2223C37.4488 33.2217 37.4867 33.1897 37.4947 33.151L37.552 32.8652L37.5631 32.8095L37.6314 32.4686C37.6393 32.4295 37.6137 32.3975 37.5746 32.3975H36.3029C35.7971 32.3975 35.6469 32.2603 35.7022 31.8567H37.7352L37.735 31.8569C37.7355 31.8569 37.7359 31.8567 37.7364 31.8567C37.7687 31.8561 37.7985 31.8334 37.8104 31.8031C37.8126 31.7973 37.8146 31.7913 37.8153 31.785L37.8151 31.7852C38.1169 30.6225 38.0303 29.8394 36.7372 29.8394L36.7374 29.8393V29.8393ZM30.2762 31.0902L30.257 31.1598L30.257 31.16L30.1035 31.7156L29.95 32.2711C29.9394 32.3094 29.8988 32.3408 29.8596 32.3408H29.0472C28.4309 32.3408 28.2808 31.8486 28.4309 31.1225C28.5809 30.3798 28.8751 29.9182 29.4817 29.8714C30.3106 29.8076 30.4764 30.403 30.2762 31.0902V31.0902ZM30.8334 32.2981C30.8334 32.2981 31.2165 31.3483 31.3035 30.7996C31.4222 30.0651 31.0621 29 29.6713 29C28.2884 29 27.6879 30.0169 27.4588 31.1224C27.2297 32.2359 27.5299 33.2125 28.9049 33.2045L29.9896 33.2004L31.0034 33.1966C31.0425 33.1963 31.0824 33.1646 31.0924 33.1261L31.2689 32.4382C31.2788 32.3996 31.2549 32.3678 31.2159 32.3676L31.0466 32.3666L30.8774 32.3656C30.8442 32.3653 30.8251 32.3434 30.8292 32.3142C30.8299 32.3087 30.8313 32.3032 30.8333 32.298L30.8334 32.2981V32.2981Z" fill="#131B28"/>
<path d="M37.6792 31.6624C37.6792 31.675 37.6743 31.6871 37.6655 31.696C37.6568 31.705 37.6449 31.71 37.6326 31.71C37.6202 31.71 37.6083 31.705 37.5996 31.696C37.5909 31.6871 37.5859 31.675 37.5859 31.6624C37.5859 31.6497 37.5909 31.6376 37.5996 31.6287C37.6083 31.6198 37.6202 31.6147 37.6326 31.6147C37.6449 31.6147 37.6568 31.6198 37.6655 31.6287C37.6743 31.6376 37.6792 31.6497 37.6792 31.6624Z" fill="#131B28"/>
<path d="M20.2739 30.4273C19.8921 30.9878 19.9396 31.717 20.2312 32.3125C20.2382 32.3268 20.2455 32.3408 20.2526 32.3549C20.2572 32.3637 20.2615 32.3729 20.2663 32.3817C20.269 32.3869 20.272 32.3921 20.2748 32.3971C20.2798 32.4066 20.2849 32.4156 20.29 32.4248C20.299 32.4412 20.3083 32.4574 20.3178 32.4736C20.3231 32.4825 20.3283 32.4915 20.3337 32.5004C20.3442 32.5177 20.355 32.5348 20.3661 32.552C20.3706 32.5593 20.3751 32.5666 20.3798 32.5737C20.395 32.5969 20.4106 32.6199 20.4266 32.6427L20.4279 32.6445C20.4305 32.6482 20.4332 32.6517 20.4358 32.6553C20.4497 32.6749 20.464 32.6942 20.4785 32.7133C20.4838 32.7202 20.4892 32.7272 20.4946 32.7341C20.5124 32.757 20.5306 32.7796 20.549 32.802C20.5673 32.8241 20.586 32.8458 20.605 32.8672C20.6058 32.8682 20.6065 32.8687 20.6071 32.8696C20.6453 32.9119 20.6848 32.953 20.7254 32.9928C20.7316 32.9987 20.7376 33.0048 20.7437 33.0104C20.764 33.03 20.7847 33.0492 20.8057 33.068C20.8092 33.0712 20.8129 33.0742 20.8163 33.0773C20.8345 33.0934 20.8531 33.1094 20.8718 33.1251C20.8794 33.1314 20.8871 33.1376 20.8948 33.1438C20.91 33.1563 20.9255 33.1686 20.941 33.1807L20.9657 33.1999C20.9829 33.2128 21.0002 33.2255 21.0176 33.2379C21.024 33.2426 21.0301 33.2472 21.0365 33.2516C21.0383 33.2529 21.0399 33.2542 21.0417 33.2554C21.0583 33.267 21.0752 33.2782 21.0921 33.2895C21.0994 33.2944 21.1066 33.2995 21.114 33.3043C21.1399 33.3211 21.1663 33.3376 21.1929 33.3536C21.2001 33.3579 21.2074 33.362 21.2147 33.3662C21.2343 33.3778 21.254 33.3891 21.2739 33.4002C21.2847 33.4061 21.2958 33.4117 21.3067 33.4174C21.3208 33.4249 21.3348 33.4326 21.3491 33.4399C21.3523 33.4415 21.3557 33.4431 21.3589 33.4447C21.3646 33.4476 21.3705 33.4503 21.3762 33.4533C21.4032 33.4665 21.4303 33.4793 21.4576 33.4916C21.4835 33.5031 21.5096 33.5142 21.536 33.5248C21.5423 33.5275 21.5487 33.53 21.555 33.5325C21.5826 33.5434 21.6103 33.5538 21.6382 33.5637C21.6655 33.5735 21.693 33.5825 21.7207 33.5913C21.7273 33.5933 21.7339 33.5954 21.7406 33.5974C21.7688 33.6061 21.7967 33.6164 21.8257 33.6219C23.6723 33.9658 24.2087 32.4886 24.2087 32.4886C23.7582 33.088 22.9586 33.246 22.2009 33.0701C22.1722 33.0634 22.1444 33.0543 22.1163 33.0459C22.0819 33.0354 22.0478 33.0242 22.0139 33.0123L22.0027 33.0081C21.9786 32.9994 21.9547 32.9904 21.9309 32.981C21.9242 32.9782 21.9175 32.9756 21.9108 32.9729C21.8848 32.9624 21.8589 32.9514 21.8333 32.94C21.8281 32.9377 21.823 32.9353 21.8178 32.933C21.7895 32.9199 21.7614 32.9065 21.7335 32.8927C21.7165 32.8842 21.6997 32.8752 21.6829 32.8664C21.6717 32.8604 21.6603 32.8546 21.6492 32.8483C21.6288 32.8371 21.6086 32.8256 21.5886 32.8136C21.5818 32.8097 21.5749 32.806 21.5681 32.802C21.5415 32.7859 21.5152 32.7695 21.4892 32.7526C21.482 32.7479 21.475 32.7429 21.4679 32.7381C21.4489 32.7256 21.4302 32.7129 21.4117 32.6999C21.4055 32.6957 21.3996 32.6911 21.3935 32.687C21.3757 32.6741 21.358 32.661 21.3405 32.6478C21.3325 32.6417 21.3246 32.6356 21.3169 32.6296C21.2936 32.6113 21.2705 32.5927 21.2476 32.5739C21.2275 32.557 21.2076 32.5399 21.188 32.5225L21.1814 32.5169C21.1602 32.4978 21.1392 32.4784 21.1186 32.4586C21.1126 32.4528 21.1068 32.4471 21.101 32.4413C21.0857 32.4265 21.0707 32.4114 21.0559 32.3961C21.05 32.3901 21.044 32.3841 21.0382 32.3781C21.0194 32.3585 21.001 32.3385 20.9829 32.3184L20.9802 32.3154C20.961 32.294 20.9423 32.2723 20.924 32.2502C20.9191 32.2441 20.9142 32.2383 20.9093 32.2324C20.8957 32.2156 20.8822 32.1986 20.869 32.1814C20.864 32.1752 20.859 32.1689 20.8542 32.1626C20.8383 32.1415 20.8227 32.1205 20.8075 32.0992C20.3869 31.5133 20.2358 30.705 20.5719 30.0413" fill="#0868AC"/>
<path d="M21.4593 29.9551C21.1832 30.3609 21.1982 30.9042 21.4136 31.3334C21.4496 31.4055 21.4905 31.4751 21.5357 31.5416C21.5771 31.6022 21.6229 31.6742 21.6779 31.7229C21.6978 31.7453 21.7186 31.7671 21.7398 31.7886C21.7452 31.7942 21.7507 31.7995 21.7562 31.8051C21.7768 31.8255 21.7978 31.8456 21.8195 31.8651C21.8204 31.8658 21.8212 31.8667 21.822 31.8674C21.8223 31.8677 21.8225 31.8677 21.8227 31.868C21.8466 31.8895 21.8714 31.9102 21.8966 31.9305C21.9022 31.9348 21.9077 31.9394 21.9134 31.9439C21.9386 31.9636 21.9643 31.983 21.9907 32.0015C21.9915 32.0021 21.9922 32.0027 21.993 32.0033C22.0046 32.0115 22.0165 32.0191 22.0283 32.027C22.0339 32.0308 22.0393 32.0348 22.045 32.0383C22.0638 32.0507 22.0829 32.0627 22.1023 32.0742C22.1051 32.0759 22.1077 32.0774 22.1104 32.079C22.1271 32.0888 22.1441 32.0985 22.1611 32.1079C22.167 32.1113 22.173 32.1143 22.1791 32.1175C22.1909 32.1238 22.2026 32.1302 22.2145 32.1362C22.2163 32.1371 22.2182 32.1379 22.2199 32.1387C22.2442 32.151 22.2687 32.1628 22.2938 32.1739C22.2992 32.1763 22.3047 32.1785 22.3101 32.1807C22.3302 32.1894 22.3504 32.1979 22.3707 32.2059C22.3793 32.2092 22.3881 32.2124 22.3966 32.2156C22.4151 32.2226 22.4337 32.229 22.4523 32.2354C22.4608 32.2381 22.469 32.2409 22.4775 32.2436C22.504 32.252 22.5303 32.2626 22.5579 32.2674C23.9837 32.5086 24.3129 31.3875 24.3129 31.3875C24.0161 31.824 23.4415 32.0321 22.8284 31.8696C22.7931 31.8601 22.7581 31.8495 22.7234 31.8378C22.6958 31.8286 22.6685 31.8188 22.6414 31.8081C22.621 31.8002 22.6007 31.7918 22.5806 31.7831C22.5752 31.7807 22.5696 31.7785 22.5643 31.776C22.5392 31.7649 22.5144 31.7531 22.4899 31.7408C22.4773 31.7345 22.4649 31.7279 22.4526 31.7214L22.4311 31.71C22.4152 31.7012 22.3995 31.6922 22.3839 31.6829C22.3802 31.6807 22.3763 31.6786 22.3726 31.6764C22.3533 31.6648 22.3343 31.653 22.3155 31.6407C22.3096 31.6369 22.3041 31.6328 22.2982 31.629C22.2858 31.6207 22.2734 31.6124 22.2612 31.6039C22.2351 31.5854 22.2094 31.5662 22.1841 31.5464C22.1783 31.5417 22.1725 31.5371 22.1668 31.5324C21.8984 31.316 21.6856 31.0203 21.5845 30.685C21.4785 30.3372 21.5013 29.9468 21.685 29.6299" fill="#0868AC"/>
<defs>
<linearGradient id="paint0_linear_6_183" x1="0.625344" y1="0.739744" x2="63.9121" y2="64.0265" gradientUnits="userSpaceOnUse">
<stop stop-color="white"/>
<stop offset="0.765625" stop-color="white" stop-opacity="0"/>
</linearGradient>
<linearGradient id="paint1_linear_6_183" x1="10.2452" y1="10.3589" x2="54.2928" y2="54.4064" gradientUnits="userSpaceOnUse">
<stop stop-color="white"/>
<stop offset="0.828125" stop-color="white" stop-opacity="0"/>
</linearGradient>
</defs>
</svg>
