<svg width="64" height="65" viewBox="0 0 64 65" fill="none" xmlns="http://www.w3.org/2000/svg">
<path d="M29.7364 2.20182C31.3034 1.29709 33.2341 1.29709 34.8011 2.20182L57.1403 15.0993C58.7074 16.0041 59.6727 17.6761 59.6727 19.4856V45.2806C59.6727 47.0901 58.7074 48.7621 57.1403 49.6669L34.8011 62.5644C33.2341 63.4691 31.3034 63.4691 29.7364 62.5644L7.39715 49.6669C5.8301 48.7621 4.86475 47.0901 4.86475 45.2806V19.4856C4.86475 17.6761 5.8301 16.0041 7.39715 15.0993L29.7364 2.20182Z" stroke="url(#paint0_linear_5_115)" stroke-opacity="0.3" stroke-width="1.01296"/>
<path d="M30.5064 11.3765C31.5971 10.7468 32.9409 10.7468 34.0315 11.3765L49.5796 20.3532C50.6703 20.9829 51.3421 22.1466 51.3421 23.406V41.3593C51.3421 42.6187 50.6703 43.7825 49.5796 44.4122L34.0315 53.3888C32.9409 54.0185 31.5971 54.0185 30.5064 53.3888L14.9584 44.4122C13.8677 43.7825 13.1958 42.6187 13.1958 41.3593V23.406C13.1958 22.1466 13.8677 20.9829 14.9584 20.3532L30.5064 11.3765Z" fill="url(#paint1_linear_5_115)" fill-opacity="0.2"/>
<path fill-rule="evenodd" clip-rule="evenodd" d="M20 21H43.8V44H20V21Z" fill="white"/>
<path fill-rule="evenodd" clip-rule="evenodd" d="M21.0503 36.3003H21.772V33.5532L22.8848 35.9489C23.017 36.2362 23.1934 36.3374 23.5459 36.3374C23.8986 36.3374 24.0749 36.2362 24.207 35.9489L25.3198 33.5532V36.3003H26.036V33.5584C26.036 33.2923 25.9257 33.1643 25.6999 33.0951C25.1545 32.93 24.7853 33.0738 24.6201 33.4306L23.5294 35.7891L22.4717 33.4306C22.3119 33.0738 21.9373 32.93 21.3919 33.0951C21.1606 33.1643 21.0504 33.2922 21.0504 33.5584V36.3003H21.0503ZM26.6364 34.0641H27.3526V35.5761C27.3471 35.6612 27.3801 35.8529 27.7768 35.8583C27.9751 35.8634 29.3248 35.8583 29.3358 35.8583V34.0587H30.0575C30.0629 34.0587 30.0575 36.5129 30.0575 36.5236C30.0629 37.1305 29.2807 37.2582 28.9226 37.2689H26.653V36.8005C26.653 36.8005 28.9172 36.8059 28.9226 36.8005C29.3854 36.7579 29.3303 36.5344 29.3303 36.4598V36.2787H27.8044C27.0936 36.2682 26.6418 35.9699 26.6364 35.6238C26.6364 35.592 26.653 34.0802 26.6364 34.0641ZM42.1112 32.3232C41.6706 32.3126 41.3344 32.3498 41.0424 32.4722C40.9599 32.5042 40.8331 32.5042 40.8167 32.6054C40.8608 32.6477 40.8716 32.7171 40.9047 32.7758C40.9764 32.8823 41.0922 33.0258 41.1968 33.1004C41.307 33.1857 41.4227 33.2708 41.5438 33.3454C41.7642 33.4731 42.0066 33.5423 42.2103 33.6703C42.3372 33.7447 42.4583 33.8407 42.5795 33.9258C42.6345 33.9684 42.6786 34.0323 42.7503 34.0588V34.0483C42.7117 34.0004 42.7006 33.9311 42.6676 33.8777L42.5023 33.718C42.3427 33.5158 42.1387 33.3347 41.9237 33.1857C41.753 33.0686 41.3674 32.9035 41.2958 32.7119C41.2902 32.7065 41.2847 32.7065 41.2847 32.7012C41.4059 32.6851 41.5493 32.6427 41.6594 32.6159C41.8468 32.5681 42.0175 32.5786 42.2102 32.5308C42.2985 32.5041 42.3865 32.4828 42.4748 32.4562V32.4083C42.3757 32.3124 42.3096 32.1794 42.1995 32.0942C41.9186 31.86 41.6099 31.631 41.2959 31.4393C41.1196 31.3275 40.9047 31.2583 40.7176 31.1679C40.6568 31.1413 40.5465 31.1253 40.5027 31.0721C40.4033 30.9549 40.3539 30.8005 40.2767 30.6621C40.1151 30.3585 39.9645 30.0494 39.8251 29.7357C39.7315 29.528 39.6652 29.3204 39.5498 29.1287C38.9767 28.2236 38.3652 27.6754 37.4122 27.1376C37.2085 27.0258 36.9661 26.9779 36.707 26.9193C36.5694 26.9086 36.4317 26.9033 36.2939 26.8926C36.2112 26.8606 36.1232 26.7596 36.0404 26.7116C35.7264 26.5199 34.9166 26.0994 34.6851 26.653C34.5363 26.999 34.9055 27.3398 35.0376 27.5156C35.1314 27.638 35.2469 27.7765 35.3132 27.9148C35.357 28.0053 35.3626 28.0958 35.4012 28.1916C35.4948 28.4312 35.572 28.6921 35.6877 28.9103C35.7482 29.0221 35.8142 29.1393 35.8914 29.2405C35.9355 29.2991 36.0182 29.3257 36.0291 29.4215C35.9519 29.5279 35.9466 29.6877 35.9025 29.8208C35.7096 30.4224 35.7813 31.1624 36.0677 31.6095C36.156 31.7425 36.3597 32.0354 36.6463 31.9237C36.8942 31.8225 36.8391 31.5243 36.9107 31.2529C36.9273 31.1943 36.9162 31.1517 36.9492 31.1091V31.1197C37.0208 31.2687 37.098 31.4125 37.1752 31.5562C37.3403 31.8171 37.6379 32.0939 37.8914 32.2749C38.018 32.3707 38.1227 32.5358 38.2934 32.5889V32.5782H38.277C38.2439 32.5304 38.1943 32.5091 38.1558 32.4717C38.0566 32.3759 37.9465 32.2587 37.8638 32.1523C37.638 31.8541 37.4342 31.5241 37.2469 31.1833C37.1586 31.0183 37.0814 30.8372 37.01 30.6722C36.9823 30.6084 36.9823 30.5126 36.9218 30.4752C36.8391 30.5977 36.7236 30.6989 36.6572 30.8426C36.558 31.0716 36.5416 31.3537 36.5086 31.6412C36.4864 31.6519 36.492 31.6465 36.4809 31.6572C36.3048 31.6146 36.244 31.4389 36.178 31.2898C36.0183 30.9118 35.9851 30.3049 36.1283 29.8684C36.1669 29.7566 36.3379 29.4051 36.2663 29.2987C36.2329 29.1975 36.1283 29.1337 36.0678 29.0539C35.9907 28.958 35.9191 28.8302 35.8641 28.7184C35.732 28.4203 35.6713 28.0902 35.5279 27.7922C35.4563 27.6484 35.3463 27.5046 35.2526 27.3822C35.1478 27.2384 35.0322 27.1373 34.9497 26.9669C34.9222 26.9083 34.8836 26.8125 34.9222 26.7486C34.9386 26.706 34.9552 26.69 34.9991 26.674C35.0707 26.6208 35.2747 26.6953 35.3516 26.7218C35.55 26.807 35.7208 26.8816 35.8915 26.9934C35.9743 27.0466 36.057 27.1477 36.1561 27.1744H36.2664C36.4427 27.2117 36.6409 27.1851 36.8061 27.233C37.0981 27.3181 37.3624 27.4513 37.5995 27.6004C38.3266 28.0422 38.9162 28.6705 39.3238 29.4211C39.3899 29.5436 39.4174 29.6554 39.4726 29.7832C39.5884 30.0441 39.7369 30.3102 39.8526 30.5604C39.9629 30.816 40.0786 31.0716 40.2383 31.2791C40.3265 31.3909 40.6569 31.4495 40.8057 31.5079C40.9104 31.5506 41.0811 31.5984 41.1804 31.6571C41.3732 31.7635 41.555 31.8967 41.7368 32.0191C41.8247 32.0783 42.1001 32.2114 42.1112 32.3232Z" fill="#00678C"/>
<path fill-rule="evenodd" clip-rule="evenodd" d="M36.4918 27.6968C36.4158 27.6968 36.34 27.7058 36.2661 27.7235V27.7341H36.2826C36.3266 27.8194 36.4038 27.8779 36.4589 27.9524C36.4974 28.0376 36.5416 28.1228 36.5801 28.208L36.5965 28.192C36.6737 28.1442 36.7068 28.059 36.7068 27.9259C36.6793 27.8939 36.6737 27.8567 36.6463 27.8194C36.6076 27.766 36.5416 27.7394 36.4918 27.6968Z" fill="#00678C"/>
<path fill-rule="evenodd" clip-rule="evenodd" d="M30.6138 36.3003H32.6796C32.922 36.3003 33.1588 36.2523 33.3461 36.167C33.6545 36.0288 33.8089 35.8423 33.8089 35.5975V35.0864C33.8089 34.8896 33.6325 34.6979 33.2967 34.5754C33.1148 34.5062 32.8944 34.4742 32.6796 34.4742H31.8092C31.5172 34.4742 31.3795 34.3889 31.3465 34.2027C31.3409 34.1815 31.3409 34.1601 31.3409 34.1389V33.8247C31.3409 33.8035 31.3409 33.7875 31.3465 33.7663C31.3795 33.6225 31.4566 33.5799 31.7101 33.5586C31.7321 33.5586 31.7596 33.5533 31.7817 33.5533H33.8365V33.0902H31.8148C31.5228 33.0902 31.374 33.1114 31.2363 33.1486C30.8066 33.2817 30.6193 33.484 30.6193 33.8408V34.2455C30.6193 34.5596 30.9884 34.8257 31.5999 34.8896C31.6716 34.8896 31.7376 34.8949 31.8092 34.8949H32.553C32.5806 34.8949 32.608 34.8949 32.63 34.9003C32.8615 34.9215 32.9551 34.9587 33.0267 35.0385C33.0652 35.0811 33.0819 35.1184 33.0819 35.1664V35.571C33.0819 35.6189 33.0488 35.6829 32.9771 35.736C32.9164 35.7894 32.8117 35.8213 32.674 35.8318C32.6465 35.8318 32.6246 35.8372 32.5969 35.8372H30.6138V36.3003ZM38.2932 35.4908C38.2932 35.97 38.6569 36.2361 39.4007 36.2894C39.4667 36.2948 39.5383 36.3002 39.6044 36.3002H41.4775V35.8368H39.5933C39.1691 35.8368 39.0094 35.7357 39.0094 35.4908V33.0899H38.2931V35.4908H38.2932ZM34.2662 35.5174V33.8672C34.2662 33.4466 34.5691 33.1911 35.1751 33.1112C35.2358 33.1005 35.3074 33.1004 35.3679 33.1004H36.7341C36.8001 33.1004 36.8609 33.1005 36.9324 33.1112C37.5329 33.1911 37.8413 33.4466 37.8413 33.8672V35.5174C37.8413 35.8583 37.7092 36.0392 37.4116 36.1564L38.1224 36.774H37.2851L36.7121 36.2788L36.1335 36.3108H35.3678C35.2357 36.3108 35.0979 36.2949 34.9436 36.2523C34.4866 36.135 34.2662 35.9008 34.2662 35.5174ZM35.043 35.4751C35.043 35.5017 35.0485 35.5228 35.0541 35.5496C35.0982 35.7411 35.2853 35.8477 35.5663 35.8477H36.222L35.6216 35.3259H36.4588L36.9821 35.7785C37.076 35.7305 37.142 35.656 37.164 35.5601C37.1695 35.5335 37.1695 35.5124 37.1695 35.4909V33.9046C37.1695 33.8885 37.1695 33.8673 37.164 33.8458C37.1199 33.665 36.9327 33.5639 36.6571 33.5639H35.5664C35.2468 33.5639 35.0431 33.6969 35.0431 33.9046V35.4751H35.043ZM41.8081 36.3003H41.9128V35.9169H42.0561V35.8369H41.6649V35.9169H41.8081V36.3003ZM42.6124 36.3003H42.706V35.8369H42.5628L42.4362 36.1565L42.3097 35.8369H42.1609V36.3003H42.26V35.9489L42.3977 36.3003H42.4693L42.607 35.9489H42.6125V36.3003H42.6124Z" fill="#CE8B2C"/>
<path fill-rule="evenodd" clip-rule="evenodd" d="M21.4853 31.9931L21.083 30.1936H21.2869L21.5182 31.3755C21.5458 31.498 21.5679 31.6204 21.5844 31.7428L21.656 31.4074L21.9481 30.1935H22.1849L22.4053 31.1039C22.4603 31.3275 22.4989 31.5404 22.5264 31.7428C22.5429 31.6257 22.5705 31.4926 22.6036 31.3489L22.8404 30.1936H23.0498L22.6257 31.9931H22.4328L22.1078 30.6249L22.0582 30.4119C22.0472 30.4917 22.0307 30.561 22.0141 30.6249L21.689 31.9931H21.4853ZM23.1766 31.12C23.1766 30.8113 23.2482 30.577 23.3859 30.4119C23.5237 30.2469 23.6999 30.167 23.9093 30.167C24.0414 30.167 24.1682 30.199 24.2783 30.2735C24.3885 30.3479 24.4766 30.4545 24.5428 30.5929C24.6034 30.7365 24.6365 30.9016 24.6365 31.0986C24.6365 31.3648 24.5759 31.5778 24.4491 31.748C24.3114 31.9344 24.1297 32.0249 23.9093 32.0249C23.6833 32.0249 23.5016 31.9291 23.3639 31.7427C23.2371 31.5673 23.1766 31.3596 23.1766 31.12ZM23.3859 31.12C23.3859 31.3437 23.4354 31.5141 23.5347 31.6365C23.6394 31.7589 23.7605 31.8229 23.9037 31.8229C24.0525 31.8229 24.1792 31.7589 24.2783 31.6365C24.3775 31.5141 24.4271 31.333 24.4271 31.0934C24.4271 30.9338 24.4051 30.8006 24.35 30.6783C24.3114 30.5825 24.2508 30.5079 24.1737 30.4547C24.0975 30.3991 24.0046 30.3692 23.9092 30.3695C23.7548 30.3695 23.6281 30.428 23.5345 30.5505C23.4354 30.6728 23.3859 30.8644 23.3859 31.12ZM24.8898 31.9931V30.1936H25.5674C25.7051 30.1936 25.8098 30.2096 25.876 30.2469C25.9476 30.2788 26.0026 30.332 26.0411 30.4119C26.0852 30.4917 26.1073 30.5823 26.1073 30.6833C26.1073 30.8219 26.0742 30.9283 25.9972 31.0135C25.9254 31.0987 25.8209 31.1519 25.6777 31.1785C25.7383 31.2105 25.7768 31.2425 25.8099 31.2743C25.8705 31.3435 25.9202 31.4181 25.9697 31.5032L26.234 31.993H25.9807L25.7768 31.6202C25.6942 31.4765 25.6391 31.3754 25.595 31.3274C25.5565 31.2742 25.5179 31.2369 25.4793 31.2209C25.4408 31.2049 25.3912 31.1943 25.3251 31.1943H25.0938V31.9929H24.8898V31.9931ZM25.0936 30.9869H25.5233C25.6169 30.9869 25.6885 30.9762 25.7382 30.9549C25.7877 30.9337 25.8262 30.8963 25.8593 30.8537C25.8868 30.8058 25.8978 30.7472 25.8978 30.6833C25.8978 30.5929 25.8703 30.5237 25.8152 30.4705C25.7601 30.4172 25.6829 30.3906 25.5728 30.3906H25.0935V30.9869H25.0936ZM26.4213 31.9931V30.1936H26.6252V31.088L27.38 30.1936H27.6553L27.0108 30.9231L27.6829 31.9931H27.4129L26.8731 31.088L26.6252 31.3703V31.9931H26.4213ZM27.7766 31.4129L27.9694 31.3969C27.9804 31.4927 28.0025 31.5725 28.041 31.6257C28.0741 31.6843 28.1292 31.7269 28.1953 31.7588C28.2614 31.796 28.3385 31.812 28.4212 31.812C28.5423 31.812 28.6305 31.78 28.6967 31.7269C28.7627 31.6683 28.7958 31.5938 28.7958 31.5033C28.7958 31.4501 28.7848 31.4075 28.7627 31.3649C28.7408 31.3277 28.7021 31.2957 28.6525 31.2691C28.6029 31.2425 28.4983 31.2052 28.3385 31.1627C28.1953 31.12 28.0905 31.0774 28.0299 31.0349C27.9686 30.9969 27.9191 30.9435 27.8867 30.8804C27.8536 30.8165 27.8371 30.742 27.8371 30.6622C27.8371 30.5131 27.8867 30.396 27.9803 30.3054C28.0794 30.2096 28.2117 30.167 28.3769 30.167C28.487 30.167 28.5862 30.1882 28.6743 30.2309C28.7569 30.2735 28.8231 30.3373 28.8726 30.4172C28.9208 30.5058 28.9454 30.6046 28.9442 30.7047L28.7514 30.7207C28.7458 30.6036 28.7073 30.5184 28.6467 30.4598C28.5805 30.4012 28.4979 30.3747 28.3823 30.3747C28.2665 30.3747 28.1785 30.4012 28.1233 30.4492C28.0934 30.472 28.0694 30.5011 28.0531 30.5344C28.0369 30.5676 28.0288 30.6041 28.0297 30.6408C28.0297 30.7154 28.0518 30.7686 28.0959 30.8112C28.1398 30.8485 28.2391 30.8911 28.3933 30.9337C28.5475 30.9709 28.6522 31.0082 28.7128 31.0349C28.8066 31.0827 28.8781 31.1413 28.9221 31.2158C28.9718 31.2904 28.9938 31.3809 28.9938 31.4821C28.9944 31.581 28.9678 31.6784 28.9166 31.7641C28.8669 31.8493 28.8009 31.9133 28.7127 31.9558C28.6301 32.0036 28.5254 32.025 28.4042 32.025C28.2169 32.025 28.0627 31.9718 27.9525 31.86C27.8424 31.7481 27.782 31.5991 27.7766 31.4129ZM30.1894 31.9931L29.7873 30.1936H29.9912L30.2225 31.3755C30.2501 31.498 30.2721 31.6204 30.2887 31.7428L30.3603 31.4074L30.6522 30.1935H30.8892L31.1094 31.1039C31.1612 31.3147 31.2017 31.528 31.2307 31.7428C31.2472 31.6257 31.2748 31.4926 31.3023 31.3489L31.5447 30.1936H31.754L31.3298 31.9931H31.137L30.8119 30.6249L30.7624 30.4119C30.7514 30.4917 30.7348 30.561 30.7183 30.6249L30.3933 31.9931H30.1894ZM31.9744 31.9931V30.1936H32.1782V31.9931H31.9744ZM32.9219 31.9931V30.4066H32.4206V30.1936H33.6271V30.4066H33.1204V31.9931H32.9219ZM33.8256 31.9931V30.1936H34.0293V30.9337H34.8225V30.1936H35.0265V31.9931H34.8225V31.1467H34.0293V31.9931H33.8256Z" fill="#00678C"/>
<defs>
<linearGradient id="paint0_linear_5_115" x1="0.625344" y1="0.739744" x2="63.9121" y2="64.0265" gradientUnits="userSpaceOnUse">
<stop stop-color="white"/>
<stop offset="0.765625" stop-color="white" stop-opacity="0"/>
</linearGradient>
<linearGradient id="paint1_linear_5_115" x1="10.2452" y1="10.3589" x2="54.2928" y2="54.4064" gradientUnits="userSpaceOnUse">
<stop stop-color="white"/>
<stop offset="0.828125" stop-color="white" stop-opacity="0"/>
</linearGradient>
</defs>
</svg>
