<svg width="64" height="65" viewBox="0 0 64 65" fill="none" xmlns="http://www.w3.org/2000/svg">
<path d="M29.7364 2.20182C31.3034 1.29709 33.2341 1.29709 34.8011 2.20182L57.1403 15.0993C58.7074 16.0041 59.6727 17.6761 59.6727 19.4856V45.2806C59.6727 47.0901 58.7074 48.7621 57.1403 49.6669L34.8011 62.5644C33.2341 63.4691 31.3034 63.4691 29.7364 62.5644L7.39715 49.6669C5.8301 48.7621 4.86475 47.0901 4.86475 45.2806V19.4856C4.86475 17.6761 5.8301 16.0041 7.39715 15.0993L29.7364 2.20182Z" stroke="url(#paint0_linear_7_7)" stroke-opacity="0.3" stroke-width="1.01296"/>
<path d="M30.5064 11.3765C31.5971 10.7468 32.9409 10.7468 34.0315 11.3765L49.5796 20.3532C50.6703 20.9829 51.3421 22.1466 51.3421 23.406V41.3593C51.3421 42.6187 50.6703 43.7825 49.5796 44.4122L34.0315 53.3888C32.9409 54.0185 31.5971 54.0185 30.5064 53.3888L14.9584 44.4122C13.8677 43.7825 13.1958 42.6187 13.1958 41.3593V23.406C13.1958 22.1466 13.8677 20.9829 14.9584 20.3532L30.5064 11.3765Z" fill="url(#paint1_linear_7_7)" fill-opacity="0.2"/>
<path fill-rule="evenodd" clip-rule="evenodd" d="M20 36.9328H20.7982V33.906L22.0289 36.5456C22.1752 36.8622 22.3702 36.9737 22.7601 36.9737C23.1502 36.9737 23.3452 36.8622 23.4913 36.5456L24.722 33.906V36.9328H25.5141V33.9118C25.5141 33.6186 25.3921 33.4776 25.1424 33.4013C24.5392 33.2194 24.1309 33.3778 23.9482 33.771L22.7419 36.3696L21.5721 33.771C21.3953 33.3778 20.981 33.2194 20.3778 33.4013C20.122 33.4776 20.0001 33.6185 20.0001 33.9118V36.9328H20ZM26.1782 34.4689H26.9703V36.1349C26.9642 36.2286 27.0007 36.4398 27.4394 36.4458C27.6588 36.4514 29.1515 36.4458 29.1637 36.4458V34.463H29.9619C29.9679 34.463 29.9619 37.167 29.9619 37.1788C29.9679 37.8475 29.1027 37.9882 28.7067 38H26.1965V37.4839C26.1965 37.4839 28.7007 37.4899 28.7067 37.4839C29.2185 37.437 29.1576 37.1907 29.1576 37.1085V36.909H27.47C26.6838 36.8974 26.1841 36.5688 26.1782 36.1874C26.1782 36.1524 26.1965 34.4867 26.1782 34.4689ZM43.2932 32.5508C42.8059 32.5391 42.434 32.5801 42.1111 32.715C42.0198 32.7503 41.8796 32.7503 41.8615 32.8618C41.9102 32.9084 41.9222 32.9848 41.9588 33.0495C42.0381 33.1668 42.1662 33.325 42.2818 33.4071C42.4037 33.5011 42.5317 33.5949 42.6656 33.6771C42.9094 33.8178 43.1775 33.894 43.4028 34.0351C43.5431 34.117 43.677 34.2228 43.8111 34.3166C43.8719 34.3635 43.9207 34.4339 44 34.4631V34.4515C43.9573 34.3988 43.945 34.3224 43.9085 34.2636L43.7257 34.0876C43.5492 33.8648 43.3236 33.6653 43.0858 33.5011C42.897 33.3721 42.4705 33.1902 42.3913 32.9791C42.3851 32.9731 42.3791 32.9731 42.3791 32.9673C42.5131 32.9496 42.6717 32.9029 42.7935 32.8733C43.0007 32.8207 43.1895 32.8322 43.4027 32.7796C43.5003 32.7501 43.5976 32.7267 43.6953 32.6974V32.6446C43.5857 32.5389 43.5126 32.3924 43.3908 32.2985C43.0801 32.0405 42.7387 31.7882 42.3914 31.5769C42.1965 31.4538 41.9588 31.3775 41.7519 31.2779C41.6846 31.2486 41.5626 31.231 41.5142 31.1724C41.4042 31.0432 41.3496 30.8731 41.2642 30.7206C41.0855 30.3861 40.9189 30.0456 40.7648 29.6999C40.6612 29.4711 40.5879 29.2423 40.4603 29.0311C39.8264 28.0339 39.1501 27.4299 38.0961 26.8373C37.8708 26.7142 37.6027 26.6614 37.3162 26.5968C37.164 26.585 37.0117 26.5792 36.8593 26.5674C36.7678 26.5321 36.6705 26.4209 36.5789 26.368C36.2316 26.1568 35.336 25.6934 35.08 26.3034C34.9154 26.6846 35.3237 27.0601 35.4698 27.2538C35.5736 27.3887 35.7013 27.5413 35.7746 27.6937C35.8231 27.7934 35.8293 27.8931 35.872 27.9986C35.9755 28.2626 36.0609 28.5501 36.1888 28.7905C36.2557 28.9137 36.3287 29.0428 36.4141 29.1543C36.4629 29.2189 36.5544 29.2482 36.5664 29.3537C36.481 29.471 36.4752 29.647 36.4264 29.7937C36.213 30.4565 36.2923 31.2719 36.6091 31.7645C36.7068 31.911 36.9321 32.2337 37.249 32.1107C37.5232 31.9992 37.4623 31.6706 37.5415 31.3716C37.5598 31.307 37.5475 31.2601 37.584 31.2131V31.2248C37.6632 31.389 37.7486 31.5474 37.834 31.7057C38.0166 31.9932 38.3457 32.2982 38.6261 32.4976C38.7661 32.6032 38.8819 32.7851 39.0707 32.8436V32.8318H39.0526C39.016 32.7791 38.9611 32.7557 38.9185 32.7144C38.8088 32.6089 38.687 32.4798 38.5956 32.3625C38.3458 32.034 38.1204 31.6704 37.9133 31.2949C37.8156 31.1131 37.7302 30.9136 37.6513 30.7318C37.6206 30.6615 37.6206 30.5559 37.5537 30.5147C37.4623 30.6497 37.3345 30.7612 37.2611 30.9195C37.1514 31.1718 37.1332 31.4826 37.0967 31.7994C37.0722 31.8112 37.0784 31.8052 37.0661 31.817C36.8713 31.7701 36.8041 31.5765 36.7311 31.4122C36.5545 30.9957 36.5177 30.3271 36.6761 29.8461C36.7188 29.723 36.9079 29.3357 36.8288 29.2184C36.7918 29.1069 36.6761 29.0366 36.6092 28.9487C36.5239 28.8431 36.4448 28.7022 36.3839 28.5791C36.2378 28.2506 36.1707 27.8869 36.0121 27.5586C35.9329 27.4001 35.8112 27.2417 35.7076 27.1068C35.5917 26.9484 35.4639 26.837 35.3726 26.6493C35.3422 26.5847 35.2995 26.4791 35.3422 26.4087C35.3603 26.3618 35.3787 26.3442 35.4272 26.3265C35.5064 26.2679 35.7321 26.35 35.8171 26.3792C36.0365 26.4731 36.2254 26.5553 36.4142 26.6785C36.5058 26.7371 36.5973 26.8485 36.7069 26.8779H36.8289C37.0239 26.919 37.2431 26.8897 37.4258 26.9424C37.7487 27.0362 38.041 27.183 38.3033 27.3473C39.1074 27.834 39.7595 28.5263 40.2103 29.3533C40.2834 29.4883 40.3138 29.6114 40.3749 29.7523C40.503 30.0397 40.6672 30.3329 40.7952 30.6086C40.9172 30.8902 41.0451 31.1718 41.2218 31.4004C41.3193 31.5236 41.6847 31.5882 41.8493 31.6525C41.9651 31.6996 42.1539 31.7522 42.2637 31.8169C42.4769 31.9342 42.678 32.0809 42.8791 32.2158C42.9763 32.281 43.2809 32.4276 43.2932 32.5508Z" fill="#00678C"/>
<path fill-rule="evenodd" clip-rule="evenodd" d="M30 36.4857H32.3917C32.6724 36.4857 32.9465 36.4336 33.1634 36.341C33.5204 36.1909 33.6992 35.9884 33.6992 35.7226V35.1677C33.6992 34.954 33.495 34.7459 33.1062 34.6129C32.8956 34.5377 32.6404 34.503 32.3917 34.503H31.384C31.0459 34.503 30.8865 34.4104 30.8483 34.2082C30.8418 34.1852 30.8418 34.162 30.8418 34.1389V33.7978C30.8418 33.7748 30.8418 33.7574 30.8483 33.7344C30.8865 33.5783 30.9758 33.532 31.2693 33.5089C31.2947 33.5089 31.3266 33.5031 31.3522 33.5031H33.7311V33.0003H31.3905C31.0524 33.0003 30.8801 33.0233 30.7207 33.0637C30.2232 33.2082 30.0064 33.4279 30.0064 33.8153V34.2547C30.0064 34.5957 30.4337 34.8846 31.1417 34.954C31.2247 34.954 31.3011 34.9598 31.384 34.9598H32.2452C32.2771 34.9598 32.3088 34.9598 32.3343 34.9656C32.6023 34.9887 32.7107 35.029 32.7936 35.1157C32.8382 35.1619 32.8575 35.2024 32.8575 35.2546V35.6938C32.8575 35.7459 32.8192 35.8153 32.7362 35.873C32.6659 35.931 32.5447 35.9656 32.3852 35.977C32.3534 35.977 32.328 35.9829 32.296 35.9829H30V36.4857ZM38.891 35.6068C38.891 36.1271 39.3121 36.416 40.1732 36.4738C40.2496 36.4797 40.3325 36.4856 40.4091 36.4856H42.5777V35.9824H40.3962C39.9051 35.9824 39.7202 35.8727 39.7202 35.6068V33H38.8909V35.6068H38.891ZM34.2286 35.6356V33.8439C34.2286 33.3873 34.5793 33.1099 35.2809 33.0231C35.3512 33.0115 35.4341 33.0114 35.5042 33.0114H37.0859C37.1623 33.0114 37.2327 33.0115 37.3155 33.0231C38.0107 33.1099 38.3678 33.3873 38.3678 33.8439V35.6356C38.3678 36.0058 38.2148 36.2022 37.8703 36.3294L38.6932 37H37.7238L37.0604 36.4623L36.3905 36.4971H35.504C35.3511 36.4971 35.1916 36.4798 35.0129 36.4336C34.4838 36.3062 34.2286 36.0519 34.2286 35.6356ZM35.128 35.5897C35.128 35.6186 35.1344 35.6415 35.1409 35.6706C35.1919 35.8785 35.4085 35.9943 35.7339 35.9943H36.493L35.7979 35.4277H36.7672L37.373 35.9191C37.4817 35.867 37.5582 35.7861 37.5836 35.682C37.59 35.6531 37.59 35.6302 37.59 35.6069V33.8846C37.59 33.8671 37.59 33.8441 37.5836 33.8207C37.5326 33.6244 37.3158 33.5146 36.9968 33.5146H35.734C35.364 33.5146 35.1281 33.659 35.1281 33.8846V35.5897H35.128ZM42.9604 36.4857H43.0817V36.0694H43.2476V35.9825H42.7946V36.0694H42.9604V36.4857ZM43.8916 36.4857H44V35.9825H43.8342L43.6876 36.3296L43.5412 35.9825H43.3689V36.4857H43.4836V36.1041L43.6431 36.4857H43.726L43.8854 36.1041H43.8917V36.4857H43.8916Z" fill="#CE8B2C"/>
<defs>
<linearGradient id="paint0_linear_7_7" x1="0.625341" y1="0.739742" x2="63.9121" y2="64.0265" gradientUnits="userSpaceOnUse">
<stop stop-color="white"/>
<stop offset="0.765625" stop-color="white" stop-opacity="0"/>
</linearGradient>
<linearGradient id="paint1_linear_7_7" x1="10.2452" y1="10.3589" x2="54.2928" y2="54.4064" gradientUnits="userSpaceOnUse">
<stop stop-color="white"/>
<stop offset="0.828125" stop-color="white" stop-opacity="0"/>
</linearGradient>
</defs>
</svg>
