<svg width="64" height="64" viewBox="0 0 64 64" fill="none" xmlns="http://www.w3.org/2000/svg">
<path fill-rule="evenodd" clip-rule="evenodd" d="M0 0H64V64H0V0Z" fill="white"/>
<path fill-rule="evenodd" clip-rule="evenodd" d="M2.82422 42.5747H4.76491V34.9305L7.75746 41.5969C8.11273 42.3964 8.58719 42.6779 9.53513 42.6779C10.4834 42.6779 10.9575 42.3964 11.3128 41.5969L14.3053 34.9305V42.5747H16.2311V34.9451C16.2311 34.2046 15.9346 33.8484 15.3273 33.6558C13.8608 33.1966 12.868 33.5967 12.4238 34.5895L9.49064 41.1523L6.6465 34.5895C6.21686 33.5967 5.20949 33.1966 3.74293 33.6558C3.12072 33.8484 2.82455 34.2043 2.82455 34.9451V42.5747H2.82422V42.5747ZM17.8457 36.3522H19.7715V40.5596C19.7569 40.7964 19.8455 41.3299 20.9123 41.3449C21.4456 41.3591 25.0749 41.3449 25.1045 41.3449V36.3373H27.0452C27.0598 36.3373 27.0452 43.1664 27.0452 43.1962C27.0598 44.8849 24.9564 45.2402 23.9935 45.2701H17.8902V43.9665C17.8902 43.9665 23.9789 43.9815 23.9935 43.9665C25.238 43.848 25.0899 43.2261 25.0899 43.0186V42.5146H20.9864C19.0752 42.4854 17.8603 41.6553 17.8457 40.6924C17.8457 40.6038 17.8902 36.397 17.8457 36.3522V36.3522ZM59.4586 31.5079C58.2739 31.4784 57.3698 31.582 56.5845 31.9226C56.3627 32.0116 56.0218 32.0116 55.9776 32.2932C56.0961 32.411 56.1253 32.604 56.2143 32.7673C56.4069 33.0638 56.7183 33.4632 56.9996 33.6708C57.2961 33.9081 57.6072 34.1449 57.9329 34.3524C58.5256 34.7077 59.1773 34.9002 59.7252 35.2565C60.0662 35.4634 60.3919 35.7306 60.7179 35.9674C60.8657 36.0859 60.9845 36.2639 61.1771 36.3376V36.3084C61.0735 36.1749 61.0436 35.9823 60.9547 35.8336L60.5104 35.3893C60.0811 34.8265 59.5326 34.3225 58.9545 33.9081C58.4953 33.5821 57.4584 33.1229 57.2659 32.5897C57.2509 32.5747 57.236 32.5747 57.236 32.5598C57.562 32.515 57.9475 32.3971 58.2437 32.3224C58.7477 32.1896 59.2065 32.2188 59.7248 32.0857C59.9622 32.0113 60.199 31.9522 60.4364 31.8781V31.7447C60.1698 31.4781 59.9921 31.1078 59.696 30.8708C58.9406 30.219 58.1105 29.5818 57.2662 29.0486C56.7921 28.7375 56.2143 28.5449 55.711 28.2933C55.5476 28.2192 55.2511 28.1747 55.1333 28.0266C54.866 27.7006 54.7332 27.2709 54.5256 26.8858C54.091 26.0409 53.6859 25.181 53.3111 24.3079C53.0594 23.7302 52.8811 23.1525 52.5707 22.6189C51.0297 20.1005 49.3852 18.5749 46.8226 17.0784C46.2748 16.7673 45.623 16.6342 44.9264 16.4711C44.5562 16.4413 44.186 16.4266 43.8155 16.3968C43.593 16.3078 43.3563 16.0266 43.1338 15.8931C42.2895 15.3598 40.1117 14.1895 39.4892 15.7301C39.0891 16.6929 40.0819 17.6412 40.4371 18.1303C40.6895 18.4709 40.9999 18.8564 41.1782 19.2412C41.2961 19.4929 41.311 19.7449 41.4149 20.0115C41.6666 20.6782 41.8741 21.404 42.1852 22.0113C42.3479 22.3224 42.5256 22.6485 42.7331 22.93C42.8516 23.0931 43.0741 23.1671 43.1033 23.4337C42.8958 23.7299 42.8815 24.1745 42.763 24.5447C42.2443 26.2188 42.4369 28.278 43.2072 29.5221C43.4446 29.8923 43.9925 30.7071 44.7631 30.3963C45.4298 30.1148 45.2814 29.285 45.474 28.5297C45.5188 28.3666 45.4889 28.2481 45.5775 28.1296V28.1591C45.7701 28.5738 45.9776 28.9739 46.1852 29.3737C46.6294 30.0998 47.4296 30.8701 48.1112 31.3735C48.4516 31.6401 48.7331 32.0996 49.1923 32.2474V32.2175H49.1481C49.0592 32.0847 48.9257 32.0252 48.8221 31.9213C48.5555 31.6547 48.2593 31.3286 48.0369 31.0325C47.4299 30.2027 46.8817 29.2844 46.3781 28.3361C46.1407 27.8769 45.9331 27.3732 45.7412 26.914C45.6665 26.7364 45.6665 26.4698 45.5038 26.3658C45.2814 26.7065 44.9709 26.9881 44.7923 27.3882C44.5257 28.0253 44.4815 28.8102 44.3929 29.6104C44.3331 29.64 44.3481 29.625 44.3182 29.6549C43.8447 29.5364 43.6813 29.0473 43.5037 28.6326C43.0744 27.5807 42.9851 25.892 43.3702 24.6772C43.4738 24.3661 43.9337 23.3882 43.7411 23.0921C43.6515 22.8105 43.3702 22.6329 43.2075 22.4108C43 22.1441 42.8075 21.7885 42.6597 21.4774C42.3044 20.6477 42.1411 19.7293 41.7556 18.8999C41.563 18.4998 41.2672 18.0997 41.0152 17.7591C40.7336 17.359 40.4225 17.0778 40.2007 16.6036C40.1267 16.4406 40.0231 16.174 40.1267 15.996C40.1708 15.8775 40.2157 15.833 40.3335 15.7885C40.5261 15.6404 41.0746 15.8479 41.2815 15.9216C41.815 16.1587 42.2742 16.3662 42.7334 16.6773C42.9559 16.8254 43.1783 17.1066 43.4449 17.181H43.7414C44.2156 17.2846 44.7485 17.2106 45.1927 17.344C45.978 17.5808 46.6888 17.9513 47.3263 18.3663C49.2816 19.5958 50.8671 21.344 51.9631 23.4327C52.1407 23.7734 52.2147 24.0845 52.3632 24.4401C52.6746 25.1662 53.074 25.9067 53.3851 26.6029C53.6816 27.3141 53.9927 28.0253 54.4221 28.6027C54.6594 28.9138 55.548 29.0768 55.948 29.2395C56.2296 29.3581 56.6885 29.4912 56.9557 29.6546C57.474 29.9507 57.9628 30.3213 58.4519 30.6619C58.6883 30.8266 59.4287 31.1968 59.4586 31.5079V31.5079Z" fill="#00678C"/>
<path fill-rule="evenodd" clip-rule="evenodd" d="M44.3472 18.6346C44.1426 18.6347 43.9388 18.6597 43.7402 18.709V18.7385H43.7844C43.9029 18.9756 44.1104 19.1386 44.2585 19.3458C44.3621 19.5829 44.481 19.8199 44.5846 20.057L44.6287 20.0125C44.8363 19.8794 44.9252 19.6423 44.9252 19.2721C44.8512 19.1831 44.8363 19.0795 44.7625 18.9756C44.6586 18.8272 44.481 18.7531 44.3472 18.6346Z" fill="#00678C"/>
<path fill-rule="evenodd" clip-rule="evenodd" d="M28.541 42.5747H34.0961C34.7479 42.5747 35.3847 42.4412 35.8884 42.2038C36.7178 41.8193 37.1329 41.3004 37.1329 40.6191V39.197C37.1329 38.6492 36.6587 38.1159 35.7556 37.7749C35.2665 37.5824 34.6739 37.4934 34.0961 37.4934H31.7557C30.9704 37.4934 30.6002 37.256 30.5113 36.738C30.4963 36.6789 30.4963 36.6195 30.4963 36.5604V35.6862C30.4963 35.6271 30.4963 35.5826 30.5113 35.5235C30.6002 35.1234 30.8074 35.0048 31.4891 34.9457C31.5482 34.9457 31.6222 34.9308 31.6816 34.9308H37.2072V33.6422H31.7706C30.9854 33.6422 30.5853 33.7013 30.2151 33.8049C29.0596 34.1751 28.556 34.7382 28.556 35.731V36.8569C28.556 37.7311 29.5484 38.4715 31.1929 38.6492C31.3855 38.6492 31.5631 38.6641 31.7557 38.6641H33.7558C33.8299 38.6641 33.9036 38.6641 33.9627 38.679C34.5852 38.7381 34.8369 38.8417 35.0295 39.0635C35.1331 39.1821 35.1779 39.286 35.1779 39.4195V40.5454C35.1779 40.6788 35.0889 40.8568 34.8963 41.0045C34.733 41.153 34.4514 41.2419 34.0812 41.2712C34.0072 41.2712 33.9484 41.2861 33.8737 41.2861H28.541V42.5747ZM49.1917 40.3222C49.1917 41.6557 50.1695 42.3961 52.1696 42.5445C52.3473 42.5594 52.5398 42.5744 52.7175 42.5744H57.7543V41.2851H52.6876C51.5468 41.2851 51.1174 41.0036 51.1174 40.3222V33.6415H49.1914V40.3222H49.1917ZM38.3627 40.3963V35.8044C38.3627 34.634 39.1771 33.9231 40.8067 33.7006C40.9701 33.6708 41.1626 33.6708 41.3253 33.6708H44.9989C45.1765 33.6708 45.3399 33.6708 45.5324 33.7006C47.1471 33.9231 47.9765 34.634 47.9765 35.8044V40.3963C47.9765 41.3449 47.6212 41.8482 46.821 42.1743L48.7322 43.8928H46.4807L44.9398 42.5149L43.3839 42.6039H41.325C40.9697 42.6039 40.5992 42.5598 40.1842 42.4412C38.9553 42.1148 38.3627 41.4631 38.3627 40.3963V40.3963ZM40.4515 40.2784C40.4515 40.3524 40.4664 40.4112 40.4813 40.4859C40.5999 41.0188 41.1032 41.3153 41.8586 41.3153H43.622L42.0073 39.8634H44.2588L45.6659 41.1227C45.9183 40.9893 46.0959 40.7818 46.155 40.5151C46.1699 40.4411 46.1699 40.3823 46.1699 40.3226V35.9083C46.1699 35.8635 46.1699 35.8047 46.155 35.7449C46.0365 35.2416 45.5331 34.9603 44.792 34.9603H41.8589C40.9996 34.9603 40.4518 35.3306 40.4518 35.9083V40.2784H40.4515V40.2784ZM58.6435 42.5747H58.925V41.5079H59.3102V41.2854H58.2583V41.5079H58.6435V42.5747ZM60.8063 42.5747H61.058V41.2854H60.6728L60.3325 42.1746L59.9922 41.2854H59.5921V42.5747H59.8587V41.5969L60.2289 42.5747H60.4215L60.7917 41.5969H60.8066V42.5747H60.8063Z" fill="#CE8B2C"/>
<path fill-rule="evenodd" clip-rule="evenodd" d="M3.99385 30.5896L2.91211 25.5823H3.46028L4.0825 28.871C4.15654 29.2117 4.21598 29.5523 4.26047 29.893L4.45304 28.9597L5.23828 25.5819H5.87511L6.46778 28.1153C6.61586 28.7375 6.71945 29.3299 6.79349 29.893C6.83799 29.5673 6.91203 29.1967 7.00101 28.797L7.63784 25.5823H8.20095L7.06044 30.5896H6.54182L5.66792 26.7822L5.53445 26.1896C5.5049 26.4117 5.46041 26.6046 5.41592 26.7822L4.54169 30.5896H3.99385ZM8.54194 28.1601C8.54194 27.3009 8.73452 26.6491 9.10473 26.1896C9.47527 25.7304 9.94907 25.5082 10.5122 25.5082C10.8675 25.5082 11.2084 25.5972 11.5046 25.8044C11.8008 26.0116 12.0378 26.3081 12.2158 26.6932C12.3788 27.093 12.4678 27.5522 12.4678 28.1004C12.4678 28.8411 12.3048 29.4338 11.9638 29.9076C11.5936 30.4262 11.1049 30.6779 10.5122 30.6779C9.90458 30.6779 9.41583 30.4113 9.04563 29.8926C8.70463 29.4046 8.54194 28.8268 8.54194 28.1601V28.1601ZM9.10473 28.1601C9.10473 28.7824 9.23787 29.2565 9.50482 29.5971C9.78638 29.9378 10.1121 30.1158 10.4972 30.1158C10.8973 30.1158 11.238 29.9378 11.5046 29.5971C11.7712 29.2565 11.9047 28.7528 11.9047 28.0861C11.9047 27.6418 11.8456 27.2713 11.6972 26.931C11.5936 26.6644 11.4306 26.4568 11.2231 26.3088C11.0183 26.154 10.7685 26.0707 10.5119 26.0717C10.0968 26.0717 9.75616 26.2344 9.50449 26.5754C9.23787 26.9157 9.10473 27.4489 9.10473 28.1601V28.1601ZM13.1488 30.5896V25.5823H14.971C15.3412 25.5823 15.6227 25.6268 15.8007 25.7304C15.9933 25.8194 16.1414 25.9674 16.2449 26.1896C16.3635 26.4117 16.4229 26.6637 16.4229 26.9449C16.4229 27.3304 16.3339 27.6266 16.1267 27.8636C15.9338 28.1007 15.6526 28.2488 15.2675 28.3228C15.4305 28.4118 15.5341 28.5008 15.6231 28.5894C15.7861 28.782 15.9196 28.9895 16.0527 29.2263L16.7636 30.5892H16.0823L15.5341 29.552C15.312 29.1519 15.1639 28.8707 15.0453 28.7372C14.9417 28.5891 14.8378 28.4852 14.7342 28.4407C14.6306 28.3962 14.4972 28.3667 14.3195 28.3667H13.6973V30.5889H13.1488V30.5896V30.5896ZM13.697 27.7896H14.8524C15.1041 27.7896 15.2967 27.76 15.4302 27.7006C15.5633 27.6415 15.6669 27.5376 15.7559 27.4191C15.8299 27.2856 15.8595 27.1226 15.8595 26.9449C15.8595 26.6932 15.7854 26.5007 15.6373 26.3526C15.4893 26.2045 15.2817 26.1305 14.9856 26.1305H13.6966V27.7896H13.697ZM17.2673 30.5896V25.5823H17.8154V28.0711L19.8451 25.5823H20.5855L18.8523 27.612L20.6596 30.5896H19.9338L18.4821 28.0711L17.8154 28.8564V30.5896H17.2673V30.5896ZM20.9116 28.9749L21.4302 28.9304C21.4597 29.1971 21.5192 29.4192 21.6228 29.5673C21.7118 29.7303 21.8598 29.8488 22.0375 29.9375C22.2154 30.0411 22.4226 30.0856 22.6451 30.0856C22.9708 30.0856 23.2079 29.9966 23.3858 29.8488C23.5635 29.6858 23.6524 29.4783 23.6524 29.2266C23.6524 29.0785 23.6229 28.96 23.5635 28.8414C23.5044 28.7379 23.4004 28.6489 23.267 28.5748C23.1338 28.5008 22.8523 28.3972 22.4226 28.2787C22.0375 28.1601 21.7559 28.0416 21.5929 27.9231C21.428 27.8174 21.2948 27.6689 21.2077 27.4934C21.1188 27.3155 21.0743 27.1083 21.0743 26.8861C21.0743 26.4711 21.2077 26.1454 21.4594 25.8934C21.726 25.6268 22.0816 25.5082 22.5259 25.5082C22.822 25.5082 23.0887 25.5673 23.3257 25.6859C23.5479 25.8044 23.7258 25.982 23.859 26.2045C23.9885 26.451 24.0546 26.7259 24.0515 27.0044L23.5329 27.0488C23.518 26.7231 23.4144 26.4861 23.2514 26.323C23.0734 26.16 22.8513 26.086 22.5405 26.086C22.2291 26.086 21.9923 26.16 21.8439 26.2935C21.7635 26.3568 21.699 26.4379 21.6553 26.5305C21.6116 26.623 21.59 26.7244 21.5922 26.8267C21.5922 27.0342 21.6517 27.1823 21.7702 27.3008C21.8884 27.4044 22.1553 27.523 22.57 27.6415C22.9847 27.7451 23.2663 27.849 23.4293 27.9231C23.6813 28.0562 23.8736 28.2192 23.9921 28.4267C24.1256 28.6343 24.1847 28.8859 24.1847 29.1675C24.1865 29.4429 24.1148 29.7138 23.9772 29.9524C23.8437 30.1895 23.6661 30.3674 23.429 30.4856C23.2069 30.6188 22.9253 30.6782 22.5993 30.6782C22.0956 30.6782 21.6809 30.5301 21.3847 30.219C21.0885 29.9079 20.9262 29.4932 20.9116 28.9749V28.9749ZM27.4 30.5896L26.3186 25.5823H26.8668L27.489 28.871C27.563 29.2117 27.6222 29.5523 27.667 29.893L27.8595 28.9597L28.6445 25.5819H29.2816L29.8739 28.1153C30.0132 28.7019 30.122 29.2952 30.2 29.893C30.2445 29.5673 30.3185 29.1967 30.3926 28.797L31.0443 25.5823H31.6071L30.4666 30.5896H29.948L29.0738 26.7822L28.9406 26.1896C28.9111 26.4117 28.8666 26.6046 28.8221 26.7822L27.9482 30.5896H27.4ZM32.1998 30.5896V25.5823H32.748V30.5896H32.1998ZM34.7478 30.5896V26.1749H33.3997V25.5823H36.644V26.1749H35.2817V30.5896H34.7478ZM37.1779 30.5896V25.5823H37.7257V27.6415H39.8586V25.5823H40.4071V30.5896H39.8586V28.2342H37.7257V30.5896H37.1779Z" fill="#00678C"/>
</svg>
