<?xml version="1.0" standalone="no"?>
<!DOCTYPE svg PUBLIC "-//W3C//DTD SVG 20010904//EN"
 "http://www.w3.org/TR/2001/REC-SVG-20010904/DTD/svg10.dtd">
<svg version="1.0" xmlns="http://www.w3.org/2000/svg"
 width="225.000000pt" height="225.000000pt" viewBox="0 0 225.000000 225.000000"
 preserveAspectRatio="xMidYMid meet">

<g transform="translate(0.000000,225.000000) scale(0.100000,-0.100000)"
fill="#000000" stroke="none">
<path d="M0 1125 l0 -1125 1125 0 1125 0 0 1125 0 1125 -1125 0 -1125 0 0
-1125z m1613 979 c39 -20 261 -179 277 -199 10 -12 9 -16 -1 -19 -8 -2 -147
-12 -309 -21 -162 -8 -437 -25 -610 -35 -366 -23 -473 -24 -503 -9 -43 23
-227 174 -227 187 0 21 39 29 210 41 288 19 854 61 885 64 17 2 79 5 138 5 83
2 115 -2 140 -14z m423 -385 c18 -20 19 -48 22 -695 1 -371 -1 -689 -6 -706
-17 -68 14 -63 -770 -109 -771 -44 -759 -45 -781 9 -8 19 -11 229 -9 714 3
631 4 689 20 704 15 15 108 23 720 59 863 52 781 50 804 24z"/>
<path d="M1670 1485 c-85 -6 -162 -15 -171 -19 -18 -8 -42 -53 -34 -65 2 -5
28 -11 56 -14 28 -4 53 -8 56 -10 2 -2 2 -138 1 -301 l-3 -297 -214 328 c-118
180 -219 333 -225 339 -8 8 -59 7 -185 -2 -191 -14 -210 -20 -214 -80 -2 -28
-1 -29 51 -32 l52 -3 0 -433 0 -432 -47 -15 c-36 -11 -50 -22 -57 -42 -5 -15
-8 -28 -5 -30 6 -5 296 11 337 18 36 7 72 36 72 59 0 10 -21 19 -62 28 l-63
14 -3 324 c-1 187 1 320 6 315 5 -6 101 -154 213 -330 111 -176 214 -335 228
-353 53 -66 126 -77 224 -34 l47 21 0 480 0 481 28 6 c51 11 71 23 78 49 4 15
3 30 -2 34 -5 4 -79 2 -164 -4z"/>
</g>
</svg>
