<svg width="64" height="65" viewBox="0 0 64 65" fill="none" xmlns="http://www.w3.org/2000/svg">
<g clip-path="url(#clip0_61505_6)">
<path d="M29.5694 2.30825C31.1364 1.40351 33.0671 1.40351 34.6341 2.30825L56.9733 15.2058C58.5404 16.1105 59.5057 17.7826 59.5057 19.592V45.3871C59.5057 47.1965 58.5404 48.8686 56.9733 49.7733L34.6341 62.6708C33.0671 63.5756 31.1364 63.5756 29.5694 62.6708L7.23014 49.7733C5.66309 48.8686 4.69775 47.1965 4.69775 45.3871V19.592C4.69775 17.7825 5.6631 16.1105 7.23015 15.2058L29.5694 2.30825Z" stroke="url(#paint0_linear_61505_6)" stroke-opacity="0.3" stroke-width="1.01296"/>
<path d="M30.3389 11.4829C31.4295 10.8532 32.7733 10.8532 33.864 11.4829L49.412 20.4596C50.5027 21.0893 51.1746 22.253 51.1746 23.5124V41.4658C51.1746 42.7252 50.5027 43.8889 49.412 44.5186L33.864 53.4953C32.7733 54.125 31.4295 54.125 30.3389 53.4953L14.7908 44.5186C13.7001 43.8889 13.0283 42.7252 13.0283 41.4658V23.5124C13.0283 22.253 13.7001 21.0893 14.7908 20.4596L30.3389 11.4829Z" fill="url(#paint1_linear_61505_6)" fill-opacity="0.2"/>
<path fill-rule="evenodd" clip-rule="evenodd" d="M24.4975 24.2711C25.2402 24.8745 25.5187 24.8284 26.9133 24.7354L40.0603 23.946C40.3391 23.946 40.1073 23.6678 40.0143 23.6216L37.8308 22.0431C37.4125 21.7183 36.8551 21.3463 35.7868 21.4394L23.0565 22.3679C22.5923 22.4139 22.4996 22.646 22.6844 22.8321L24.4975 24.2711ZM25.2868 27.335V41.1679C25.2868 41.9113 25.6583 42.1894 26.4945 42.1435L40.943 41.3074C41.7796 41.2614 41.8728 40.7501 41.8728 40.1462V26.4061C41.8728 25.8031 41.6409 25.478 41.1288 25.5244L26.0299 26.4061C25.4727 26.4529 25.2868 26.7316 25.2868 27.335H25.2868ZM39.5504 28.077C39.643 28.4952 39.5504 28.913 39.1314 28.9601L38.4353 29.0988V39.3111C37.8308 39.6359 37.2735 39.8217 36.809 39.8217C36.0654 39.8217 35.8791 39.5894 35.3221 38.8935L30.7685 31.7448V38.6614L32.2094 38.9865C32.2094 38.9865 32.2094 39.8217 31.0469 39.8217L27.8419 40.0076C27.7488 39.8217 27.8419 39.3579 28.167 39.265L29.0034 39.0332V29.8881L27.8422 29.7951C27.749 29.3769 27.981 28.7739 28.6319 28.7271L32.07 28.4954L36.809 35.7371V29.3309L35.6007 29.1922C35.508 28.6809 35.8791 28.3097 36.3438 28.2637L39.5504 28.077ZM21.9877 21.1146L35.2292 20.1395C36.8553 20 37.2737 20.0934 38.2957 20.8358L42.5225 23.8067C43.22 24.3176 43.4524 24.4566 43.4524 25.0135V41.3074C43.4524 42.3286 43.0804 42.9325 41.7799 43.0249L26.4025 43.9535C25.4262 44 24.9615 43.8609 24.4502 43.2106L21.3375 39.172C20.7798 38.4286 20.5479 37.8725 20.5479 37.2218V22.7387C20.5479 21.9037 20.92 21.2071 21.9877 21.1146V21.1146Z" fill="white"/>
</g>
<defs>
<linearGradient id="paint0_linear_61505_6" x1="0.45835" y1="0.846176" x2="63.7451" y2="64.1329" gradientUnits="userSpaceOnUse">
<stop stop-color="white"/>
<stop offset="0.765625" stop-color="white" stop-opacity="0"/>
</linearGradient>
<linearGradient id="paint1_linear_61505_6" x1="10.0776" y1="10.4653" x2="54.1252" y2="54.5129" gradientUnits="userSpaceOnUse">
<stop stop-color="white"/>
<stop offset="0.828125" stop-color="white" stop-opacity="0"/>
</linearGradient>
<clipPath id="clip0_61505_6">
<rect width="64" height="65" fill="white"/>
</clipPath>
</defs>
</svg>
