<svg width="64" height="65" viewBox="0 0 64 65" fill="none" xmlns="http://www.w3.org/2000/svg">
<path d="M29.7364 2.20182C31.3034 1.29709 33.2341 1.29709 34.8011 2.20182L57.1403 15.0993C58.7074 16.0041 59.6727 17.6761 59.6727 19.4856V45.2806C59.6727 47.0901 58.7074 48.7621 57.1403 49.6669L34.8011 62.5644C33.2341 63.4691 31.3034 63.4691 29.7364 62.5644L7.39715 49.6669C5.8301 48.7621 4.86475 47.0901 4.86475 45.2806V19.4856C4.86475 17.6761 5.8301 16.0041 7.39715 15.0993L29.7364 2.20182Z" stroke="url(#paint0_linear_7_2)" stroke-opacity="0.3" stroke-width="1.01296"/>
<path d="M30.5064 11.3765C31.5971 10.7468 32.9409 10.7468 34.0315 11.3765L49.5796 20.3532C50.6703 20.9829 51.3421 22.1466 51.3421 23.406V41.3593C51.3421 42.6187 50.6703 43.7825 49.5796 44.4122L34.0315 53.3888C32.9409 54.0185 31.5971 54.0185 30.5064 53.3888L14.9584 44.4122C13.8677 43.7825 13.1958 42.6187 13.1958 41.3593V23.406C13.1958 22.1466 13.8677 20.9829 14.9584 20.3532L30.5064 11.3765Z" fill="url(#paint1_linear_7_2)" fill-opacity="0.2"/>
<path d="M16 21C14.8954 21 14 21.8954 14 23V38.698C14 39.8026 14.8954 40.698 16 40.698H22.3567C23.2685 40.698 24.0077 41.4372 24.0077 42.349V42.349C24.0077 43.2608 24.7469 44 25.6587 44H30.349C31.2608 44 32 43.2608 32 42.349V42.349C32 41.4372 32.7392 40.698 33.651 40.698H48C49.1046 40.698 50 39.8026 50 38.698V23C50 21.8954 49.1046 21 48 21H16Z" fill="#CB3837"/>
<path d="M19.9566 24H18C16.8954 24 16 24.8954 16 26V35.5981C16 36.6907 16.8857 37.5764 17.9783 37.5764V37.5764C19.0709 37.5764 19.9566 36.6907 19.9566 35.5981V28.4302C19.9566 27.8743 20.4072 27.4236 20.9631 27.4236V27.4236C21.519 27.4236 21.9697 27.8743 21.9697 28.4302V36.5699C21.9697 37.1258 22.4203 37.5764 22.9762 37.5764V37.5764C23.532 37.5764 23.9827 37.1258 23.9827 36.5699V26C23.9827 24.8954 23.0872 24 21.9827 24H19.9566ZM27.9956 24C26.8911 24 25.9956 24.8954 25.9956 26V39C25.9956 40.1046 26.8911 41 27.9956 41H28.3099C29.2553 41 30.0217 40.2336 30.0217 39.2882V39.2882C30.0217 38.3428 30.7881 37.5764 31.7335 37.5764H32C33.0926 37.5764 33.9783 36.6907 33.9783 35.5981V26C33.9783 24.8954 33.0829 24 31.9783 24H27.9956ZM31.9653 33.1809C31.9653 33.7176 31.5302 34.1527 30.9935 34.1527V34.1527C30.4568 34.1527 30.0217 33.7176 30.0217 33.1809V28.3954C30.0217 27.8587 30.4568 27.4236 30.9935 27.4236V27.4236C31.5302 27.4236 31.9653 27.8587 31.9653 28.3954V33.1809ZM39.948 24H37.9913C36.8867 24 35.9913 24.8954 35.9913 26V35.598C35.9913 36.6906 36.877 37.5764 37.9696 37.5764V37.5764C39.0622 37.5764 39.948 36.6906 39.948 35.598V28.4301C39.948 27.8742 40.3986 27.4236 40.9545 27.4236V27.4236C41.5103 27.4236 41.961 27.8742 41.961 28.4301V36.5699C41.961 37.1258 42.4116 37.5764 42.9674 37.5764V37.5764C43.5233 37.5764 43.9739 37.1258 43.9739 36.5699V28.4302C43.9739 27.8743 44.4246 27.4236 44.9805 27.4236V27.4236C45.5364 27.4236 45.987 27.8743 45.987 28.4302V36.5699C45.987 37.1258 46.4377 37.5764 46.9935 37.5764V37.5764C47.5494 37.5764 48 37.1258 48 36.5699V26C48 24.8954 47.1046 24 46 24H39.948Z" fill="white"/>
<defs>
<linearGradient id="paint0_linear_7_2" x1="0.625341" y1="0.739742" x2="63.9121" y2="64.0265" gradientUnits="userSpaceOnUse">
<stop stop-color="white"/>
<stop offset="0.765625" stop-color="white" stop-opacity="0"/>
</linearGradient>
<linearGradient id="paint1_linear_7_2" x1="10.2452" y1="10.3589" x2="54.2928" y2="54.4064" gradientUnits="userSpaceOnUse">
<stop stop-color="white"/>
<stop offset="0.828125" stop-color="white" stop-opacity="0"/>
</linearGradient>
</defs>
</svg>
