<svg width="64" height="65" viewBox="0 0 64 65" fill="none" xmlns="http://www.w3.org/2000/svg">
<path d="M29.7364 2.20182C31.3034 1.29709 33.2341 1.29709 34.8011 2.20182L57.1403 15.0993C58.7074 16.0041 59.6727 17.6761 59.6727 19.4856V45.2806C59.6727 47.0901 58.7074 48.7621 57.1403 49.6669L34.8011 62.5644C33.2341 63.4691 31.3034 63.4691 29.7364 62.5644L7.39715 49.6669C5.8301 48.7621 4.86475 47.0901 4.86475 45.2806V19.4856C4.86475 17.6761 5.8301 16.0041 7.39715 15.0993L29.7364 2.20182Z" stroke="url(#paint0_linear_5_144)" stroke-opacity="0.3" stroke-width="1.01296"/>
<path d="M30.5064 11.3765C31.5971 10.7468 32.9409 10.7468 34.0315 11.3765L49.5796 20.3532C50.6703 20.9829 51.3421 22.1466 51.3421 23.406V41.3593C51.3421 42.6187 50.6703 43.7825 49.5796 44.4122L34.0315 53.3888C32.9409 54.0185 31.5971 54.0185 30.5064 53.3888L14.9584 44.4122C13.8677 43.7825 13.1958 42.6187 13.1958 41.3593V23.406C13.1958 22.1466 13.8677 20.9829 14.9584 20.3532L30.5064 11.3765Z" fill="url(#paint1_linear_5_144)" fill-opacity="0.2"/>
<path d="M20.9917 21.9827H42.8084V43.0126H20.9917V21.9827Z" fill="url(#paint2_radial_5_144)"/>
<path d="M20.9917 21.9827H42.8084V43.0126H20.9917V21.9827ZM20 43.9953H43.8V21H20V43.9953ZM36.0452 30.434C35.2618 30.434 34.994 30.827 34.994 31.1513C34.994 31.5051 35.1725 31.7508 36.2237 32.2913C37.7806 33.0381 38.2665 33.7555 38.2665 34.807C38.2665 36.3793 37.0567 37.2245 35.4204 37.2245C34.5577 37.2245 33.8139 37.0475 33.3875 36.8019C33.3181 36.7724 33.3082 36.7233 33.3082 36.6446V35.2001C33.3082 35.1018 33.3577 35.0723 33.4272 35.1215C34.0519 35.5244 34.7659 35.7013 35.4204 35.7013C36.2039 35.7013 36.5311 35.377 36.5311 34.9347C36.5311 34.581 36.303 34.2665 35.3014 33.7555C33.8932 33.0873 33.3082 32.4092 33.3082 31.2791C33.3082 30.0114 34.3098 28.9599 36.0452 28.9599C36.898 28.9599 37.493 29.0877 37.8202 29.2351C37.8996 29.2842 37.9194 29.3628 37.9194 29.4316V30.7779C37.9194 30.8565 37.8698 30.9056 37.7706 30.8761C37.3343 30.601 36.6898 30.434 36.0452 30.434ZM27.5168 31.6034C27.7449 31.623 27.9234 31.623 28.3201 31.623C29.4804 31.623 30.5712 31.2201 30.5712 29.6577C30.5712 28.4096 29.7877 27.7807 28.4689 27.7807C28.0722 27.7807 27.6953 27.8003 27.5168 27.8101V31.6034ZM25.7517 26.3852C25.7517 26.3164 25.8905 26.2673 25.9698 26.2673C26.6045 26.2378 27.5466 26.2181 28.5284 26.2181C31.2752 26.2181 32.3462 27.7118 32.3462 29.6183C32.3462 32.1144 30.5216 33.1855 28.2804 33.1855C27.9036 33.1855 27.7747 33.1659 27.5069 33.1659V36.9395C27.5069 37.0181 27.4772 37.0574 27.3879 37.0574H25.8707C25.7914 37.0574 25.7516 37.0279 25.7516 36.9395V26.3852H25.7517Z" fill="#31C5F0"/>
<defs>
<linearGradient id="paint0_linear_5_144" x1="0.625344" y1="0.739744" x2="63.9121" y2="64.0265" gradientUnits="userSpaceOnUse">
<stop stop-color="white"/>
<stop offset="0.765625" stop-color="white" stop-opacity="0"/>
</linearGradient>
<linearGradient id="paint1_linear_5_144" x1="10.2452" y1="10.3589" x2="54.2928" y2="54.4064" gradientUnits="userSpaceOnUse">
<stop stop-color="white"/>
<stop offset="0.828125" stop-color="white" stop-opacity="0"/>
</linearGradient>
<radialGradient id="paint2_radial_5_144" cx="0" cy="0" r="1" gradientUnits="userSpaceOnUse" gradientTransform="translate(28.1771 26.6955) scale(16.5807 15.908)">
<stop stop-color="#34364E" stop-opacity="0.98"/>
<stop offset="1" stop-color="#0C0824"/>
</radialGradient>
</defs>
</svg>
