<svg width="64" height="64" viewBox="0 0 64 64" fill="none" xmlns="http://www.w3.org/2000/svg">
<g clip-path="url(#clip0_5_16)">
<path d="M2.66699 2.74097H61.3337V61.259H2.66699V2.74097Z" fill="url(#paint0_radial_5_16)"/>
<path d="M2.66663 2.74094H61.3334V61.2589H2.66663V2.74094ZM0 63.9935H64V0.00650024H0V63.9935ZM43.1467 26.2575C41.04 26.2575 40.3201 27.3513 40.3201 28.2536C40.3201 29.238 40.8 29.9217 43.6267 31.4257C47.8134 33.5039 49.1201 35.5 49.1201 38.426C49.1201 42.8011 45.8667 45.1528 41.4667 45.1528C39.1467 45.1528 37.1466 44.6605 36 43.977C35.8134 43.895 35.7867 43.7583 35.7867 43.5394V39.5197C35.7867 39.2463 35.92 39.1642 36.1068 39.301C37.7867 40.4222 39.7067 40.9144 41.4667 40.9144C43.5734 40.9144 44.4534 40.012 44.4534 38.7814C44.4534 37.797 43.84 36.922 41.1466 35.5C37.3599 33.6406 35.7867 31.7539 35.7867 28.6092C35.7867 25.0816 38.4801 22.1558 43.1467 22.1558C45.44 22.1558 47.04 22.5113 47.92 22.9215C48.1333 23.0582 48.1866 23.2769 48.1866 23.4683V27.2145C48.1866 27.4332 48.0533 27.57 47.7866 27.4879C46.6133 26.7224 44.88 26.2575 43.1467 26.2575V26.2575ZM20.2133 29.5116C20.8267 29.5662 21.3067 29.5662 22.3733 29.5662C25.4935 29.5662 28.4267 28.4451 28.4267 24.0974C28.4267 20.6246 26.32 18.8744 22.7734 18.8744C21.7068 18.8744 20.6933 18.9291 20.2133 18.9564V29.5116ZM15.4667 14.9914C15.4667 14.8 15.8401 14.6632 16.0533 14.6632C17.7601 14.5812 20.2934 14.5265 22.9334 14.5265C30.32 14.5265 33.1999 18.6829 33.1999 23.9879C33.1999 30.9334 28.2933 33.914 22.2667 33.914C21.2534 33.914 20.9068 33.8594 20.1866 33.8594V44.3598C20.1866 44.5785 20.1067 44.6879 19.8667 44.6879H15.7867C15.5734 44.6879 15.4666 44.6059 15.4666 44.3598V14.9914H15.4667Z" fill="#31C5F0"/>
</g>
<defs>
<radialGradient id="paint0_radial_5_16" cx="0" cy="0" r="1" gradientUnits="userSpaceOnUse" gradientTransform="translate(21.989 15.8549) scale(44.5867 44.2658)">
<stop stop-color="#34364E" stop-opacity="0.98"/>
<stop offset="1" stop-color="#0C0824"/>
</radialGradient>
<clipPath id="clip0_5_16">
<rect width="64" height="64" fill="white"/>
</clipPath>
</defs>
</svg>
