<svg width="64" height="64" viewBox="0 0 64 64" fill="none" xmlns="http://www.w3.org/2000/svg">
<path d="M63.7519 38.3201C63.3681 37.1932 62.3629 36.4083 61.0629 36.2199C60.4499 36.1312 59.7479 36.169 58.9172 36.3351C57.4692 36.6247 56.3949 36.735 55.6109 36.7564C58.5702 31.912 60.9764 26.3877 62.3617 21.1875C64.6017 12.7789 63.4047 8.94823 62.0059 7.21555C58.3042 2.62934 52.9034 0.165591 46.3879 0.0902041C42.9122 0.0489961 39.8609 0.714384 38.2692 1.19288C36.7872 0.939331 35.1937 0.79777 33.5217 0.771591C30.3874 0.723111 27.6182 1.38559 25.2519 2.74715C23.9419 2.31762 21.8394 1.7121 19.4114 1.32572C13.7009 0.416717 9.09841 1.12501 5.73191 3.43096C1.65541 6.22292 -0.234344 11.0738 0.115156 17.8489C0.226156 20 1.46716 26.5448 3.42116 32.7517C4.54416 36.3193 5.74166 39.2819 6.98041 41.5581C8.73716 44.7856 10.6169 46.6863 12.7272 47.3689C13.9099 47.7509 16.0589 48.0185 18.3192 46.1932C18.6057 46.5297 18.9879 46.864 19.4952 47.1745C20.1394 47.5684 20.9272 47.8903 21.7139 48.081C24.5492 48.7682 27.2049 48.5964 29.4707 47.6331C29.4847 48.0238 29.4954 48.3971 29.5044 48.7195C29.5194 49.2424 29.5344 49.7551 29.5542 50.2345C29.6884 53.4764 29.9159 55.9971 30.5899 57.7608C30.6269 57.8578 30.6767 58.0056 30.7292 58.1625C31.0654 59.1607 31.6277 60.8318 33.0582 62.1405C34.5394 63.4962 36.3312 63.9119 37.9722 63.9119C38.7952 63.9119 39.5804 63.8072 40.2692 63.6642C42.7242 63.154 45.5124 62.3768 47.5294 59.5921C49.4364 56.9597 50.3634 52.9947 50.5312 46.7474C50.5529 46.5706 50.5729 46.4019 50.5922 46.2412L50.6322 45.9111L51.0814 45.9494L51.1972 45.9569C53.6977 46.0674 56.7552 45.5533 58.6329 44.7076C60.1167 44.04 64.8714 41.6061 63.7519 38.3201" fill="black"/>
<path d="M59.4767 38.959C52.0417 40.4461 51.5304 38.0054 51.5304 38.0054C59.3804 26.7112 62.6622 12.375 59.8304 8.86621C52.1044 -0.704953 38.7307 3.82163 38.5075 3.93895L38.4357 3.95155C36.9667 3.65582 35.3229 3.47984 33.4752 3.45051C30.1112 3.39718 27.5592 4.3057 25.6227 5.72956C25.6227 5.72956 1.7652 -3.80016 2.87495 17.7148C3.11095 22.2918 9.64095 52.3472 17.4295 43.2691C20.2762 39.9494 23.027 37.1427 23.027 37.1427C24.393 38.0226 26.0285 38.4715 27.743 38.3103L27.8762 38.2007C27.8347 38.6128 27.8537 39.0159 27.9295 39.4932C25.923 41.6668 26.5127 42.0483 22.5017 42.849C18.443 43.6601 20.8272 45.1038 22.384 45.4815C24.2712 45.9389 28.6372 46.587 31.5872 42.5828L31.4697 43.0398C32.2557 43.6504 32.8077 47.011 32.7152 50.0577C32.6227 53.1042 32.561 55.1959 33.1802 56.8297C33.8 58.4634 34.4172 62.1394 39.6902 61.044C44.0959 60.1285 46.3792 57.7561 46.697 53.7987C46.9222 50.9854 47.4324 51.4014 47.4644 48.886L47.8737 47.6953C48.3455 43.8816 47.9487 42.6512 50.6629 43.2235L51.3229 43.2797C53.3204 43.3677 55.9355 42.968 57.4702 42.2764C60.7747 40.7896 62.7347 38.3067 59.4762 38.959H59.4767" fill="#336791"/>
<path d="M27.0192 19.7616C26.3492 19.6712 25.7424 19.7548 25.4354 19.9803C25.2629 20.107 25.2094 20.2539 25.1949 20.355C25.1564 20.6229 25.3499 20.9191 25.4689 21.0718C25.8054 21.5042 26.2969 21.8014 26.7834 21.8669C26.8539 21.8766 26.9242 21.8809 26.9939 21.8809C27.8052 21.8809 28.5429 21.2684 28.6079 20.8163C28.6892 20.2501 27.8414 19.8726 27.0192 19.7619M49.2152 19.7796C49.1512 19.3357 48.3367 19.2092 47.5637 19.3134C46.7917 19.4177 46.0432 19.7556 46.1057 20.2004C46.1557 20.5463 46.7999 21.1368 47.5624 21.1368C47.6269 21.1368 47.6919 21.1326 47.7574 21.1237C48.2664 21.0553 48.6399 20.7419 48.8174 20.5613C49.0874 20.2859 49.2439 19.9791 49.2152 19.7796" fill="white"/>
<path d="M61.9505 38.7902C61.667 37.959 60.7545 37.6916 59.2385 37.9951C54.7372 38.8958 53.1252 38.2719 52.596 37.894C56.0947 32.726 58.973 26.4789 60.5257 20.6504C61.2612 17.8895 61.6675 15.3254 61.7007 13.2354C61.7375 10.9415 61.3345 9.2559 60.5035 8.22618C57.153 4.07508 52.2355 1.8484 46.283 1.78731C42.1907 1.74271 38.7332 2.75813 38.063 3.04367C36.6515 2.70334 35.1127 2.49439 33.4375 2.46773C30.3655 2.41949 27.71 3.13263 25.5115 4.58631C24.5565 4.24161 22.0885 3.42012 19.0702 2.94865C13.8522 2.13419 9.70574 2.75134 6.74674 4.78386C3.21598 7.20932 1.58598 11.5449 1.90173 17.6698C2.00798 19.7305 3.21898 26.0697 5.12999 32.1406C7.64549 40.1311 10.38 44.6545 13.257 45.5851C13.5937 45.694 13.982 45.7701 14.4102 45.7701C15.4597 45.7701 16.7465 45.3114 18.0852 43.7509C19.7181 41.8516 21.4072 39.9984 23.1505 38.1936C24.2815 38.7822 25.524 39.1108 26.7947 39.1438C26.7972 39.1761 26.8005 39.2083 26.8035 39.2403C26.5847 39.4932 26.3705 39.7498 26.161 40.0099C25.2805 41.0937 25.0972 41.3194 22.263 41.8851C21.4567 42.0466 19.3155 42.4744 19.284 43.9298C19.25 45.5199 21.8152 46.1877 22.1075 46.2585C23.126 46.5057 24.1072 46.6277 25.043 46.6277C27.3187 46.6277 29.3215 45.9024 30.922 44.4992C30.8727 50.1679 31.1165 55.7538 31.8185 57.4557C32.3935 58.849 33.798 62.254 38.2345 62.2537C38.8855 62.2537 39.602 62.1803 40.3902 62.0164C45.0205 61.0541 47.0312 59.0698 47.809 54.6952C48.2252 52.3573 48.9395 46.7746 49.2755 43.78C49.9845 43.9945 50.8972 44.0927 51.884 44.0924C53.942 44.0924 56.3167 43.6685 57.806 42.9982C59.479 42.2448 62.498 40.3963 61.9505 38.7902V38.7902ZM50.924 18.5546C50.9087 19.4386 50.7832 20.2412 50.6502 21.079C50.507 21.98 50.359 22.9115 50.3217 24.0423C50.285 25.1428 50.4267 26.2869 50.5637 27.3935C50.8407 29.6284 51.125 31.9293 50.0247 34.1996C49.842 33.8856 49.6792 33.5611 49.5372 33.2278C49.4005 32.9064 49.1035 32.3901 48.6922 31.6755C47.0925 28.8937 43.3462 22.3794 45.264 19.7213C45.8352 18.9301 47.285 18.1166 50.924 18.5546V18.5546ZM46.513 3.57744C51.8465 3.69161 56.0655 5.6262 59.0525 9.32717C61.3435 12.1659 58.8207 25.0827 51.5175 36.2261C51.444 36.1355 51.3702 36.0452 51.296 35.9553L51.2035 35.8433C53.0907 32.8213 52.7217 29.8313 52.3932 27.1804C52.2582 26.0925 52.1307 25.065 52.1632 24.0997C52.1967 23.0768 52.3362 22.1993 52.4712 21.3509C52.637 20.3055 52.8057 19.2236 52.7592 17.9484C52.794 17.8146 52.808 17.6565 52.7897 17.4689C52.671 16.246 51.231 12.586 48.296 9.27335C46.6905 7.46141 44.3492 5.43374 41.1525 4.06612C42.5275 3.78978 44.4077 3.53211 46.513 3.57744V3.57744ZM16.6685 42.6087C15.1935 44.3283 14.175 43.9986 13.84 43.8905C11.6575 43.1846 9.12499 38.7119 6.89224 31.6192C4.96024 25.4822 3.83123 19.3109 3.74173 17.5804C3.45973 12.1075 4.82799 8.29333 7.80874 6.24359C12.6597 2.90817 20.6352 4.90458 23.84 5.91708C23.794 5.9612 23.746 6.00241 23.7005 6.04725C18.4415 11.1968 18.5662 19.9949 18.5792 20.5328C18.5787 20.7403 18.5967 21.0341 18.6212 21.4382C18.7117 22.918 18.8802 25.6722 18.4302 28.7912C18.0122 31.6895 18.9337 34.5263 20.958 36.5744C21.1657 36.7842 21.3841 36.9838 21.6122 37.1726C20.7112 38.1083 18.753 40.1774 16.6685 42.6087V42.6087ZM22.2882 35.3384C20.6567 33.6876 19.9157 31.3916 20.255 29.0384C20.73 25.7437 20.5547 22.8742 20.4605 21.3325C20.4472 21.1168 20.4355 20.9277 20.4287 20.7786C21.197 20.1181 24.7572 18.2686 27.2962 18.8326C28.4547 19.0898 29.1607 19.8548 29.4542 21.1706C30.9732 27.9828 29.6552 30.822 28.5962 33.1037C28.378 33.5737 28.1717 34.018 27.9957 34.4776L27.8592 34.833C27.5137 35.7313 27.1922 36.5666 26.993 37.3598C25.2585 37.3549 23.5712 36.6364 22.2882 35.3381V35.3384ZM22.5545 44.5253C22.048 44.4027 21.5925 44.1896 21.3252 44.0129C21.5485 43.9111 21.9457 43.7724 22.6347 43.6348C25.969 42.9694 26.484 42.4996 27.6085 41.1153C27.8662 40.7977 28.1585 40.438 28.5632 39.9997L28.5637 39.9992C29.1665 39.3448 29.4422 39.4558 29.9422 39.657C30.3475 39.8194 30.7422 40.3119 30.9022 40.8539C30.978 41.1099 31.063 41.5957 30.7847 41.9738C28.4357 45.1629 25.0127 45.1219 22.5545 44.5253V44.5253ZM40.0042 60.2697C35.9252 61.1171 34.481 59.0992 33.5292 56.7922C32.915 55.3029 32.613 48.587 32.8272 41.1703C32.83 41.0716 32.8155 40.9764 32.7875 40.8867C32.7624 40.7096 32.7243 40.5344 32.6735 40.3626C32.355 39.2834 31.5787 38.3807 30.6475 38.0065C30.2775 37.8579 29.5985 37.5852 28.7825 37.7876C28.9565 37.0924 29.2582 36.3073 29.5855 35.4572L29.7227 35.0996C29.8772 34.6965 30.0712 34.2788 30.2762 33.8367C31.3845 31.4496 32.9022 28.1798 31.255 20.7932C30.638 18.0264 28.5775 16.6753 25.454 16.9892C23.5815 17.177 21.8682 17.9096 21.0137 18.3297C20.83 18.4198 20.662 18.5071 20.505 18.5919C20.7435 15.8043 21.6445 10.5947 25.015 7.29852C27.1372 5.22358 29.9635 4.19871 33.407 4.25398C40.192 4.3616 44.543 7.73775 46.9985 10.5513C49.1145 12.9755 50.2602 15.4177 50.7175 16.7349C47.2787 16.3958 44.94 17.0539 43.7545 18.6974C41.1752 22.2723 45.1655 29.2108 47.0832 32.5454C47.435 33.1565 47.7385 33.6847 47.834 33.9092C48.4585 35.3767 49.267 36.3565 49.8572 37.0715C50.0382 37.2907 50.2137 37.5033 50.3472 37.6889C49.3057 37.9801 47.435 38.6527 47.6055 42.015C47.468 43.7021 46.4902 51.601 45.9935 54.3917C45.3377 58.0787 43.9385 59.4518 40.0042 60.2699V60.2697ZM57.0302 41.378C55.9652 41.8572 54.183 42.2167 52.49 42.294C50.62 42.3789 49.668 42.0909 49.444 41.9137C49.339 39.8184 50.1432 39.5995 50.9945 39.3678C51.1282 39.3314 51.2587 39.2958 51.3847 39.2531C51.463 39.315 51.5487 39.3763 51.6427 39.4364C53.1457 40.3982 55.8265 40.502 59.6112 39.7445L59.6527 39.7365C59.1422 40.1992 58.2687 40.8203 57.0302 41.378Z" fill="white"/>
</svg>
