<svg width="64" height="65" viewBox="0 0 64 65" fill="none" xmlns="http://www.w3.org/2000/svg">
<path d="M29.7364 2.20182C31.3034 1.29709 33.2341 1.29709 34.8011 2.20182L57.1403 15.0993C58.7074 16.0041 59.6727 17.6761 59.6727 19.4856V45.2806C59.6727 47.0901 58.7074 48.7621 57.1403 49.6669L34.8011 62.5644C33.2341 63.4691 31.3034 63.4691 29.7364 62.5644L7.39715 49.6669C5.8301 48.7621 4.86475 47.0901 4.86475 45.2806V19.4856C4.86475 17.6761 5.8301 16.0041 7.39715 15.0993L29.7364 2.20182Z" stroke="url(#paint0_linear_5_150)" stroke-opacity="0.3" stroke-width="1.01296"/>
<path d="M30.5064 11.3765C31.5971 10.7468 32.9409 10.7468 34.0315 11.3765L49.5796 20.3532C50.6703 20.9829 51.3421 22.1466 51.3421 23.406V41.3593C51.3421 42.6187 50.6703 43.7825 49.5796 44.4122L34.0315 53.3888C32.9409 54.0185 31.5971 54.0185 30.5064 53.3888L14.9584 44.4122C13.8677 43.7825 13.1958 42.6187 13.1958 41.3593V23.406C13.1958 22.1466 13.8677 20.9829 14.9584 20.3532L30.5064 11.3765Z" fill="url(#paint1_linear_5_150)" fill-opacity="0.2"/>
<path d="M43.6801 34.7395C43.5374 34.3345 43.1636 34.0525 42.6802 33.9848C42.4522 33.9529 42.1911 33.9665 41.8822 34.0262C41.3438 34.1302 40.9443 34.1699 40.6527 34.1776C41.7532 32.4366 42.648 30.4513 43.1632 28.5825C43.9962 25.5607 43.551 24.184 43.0308 23.5613C41.6543 21.9132 39.6459 21.0277 37.2229 21.0007C35.9304 20.9858 34.7957 21.225 34.2038 21.3969C33.6526 21.3058 33.0601 21.2549 32.4383 21.2455C31.2727 21.2281 30.2429 21.4662 29.3629 21.9555C28.8758 21.8011 28.0939 21.5835 27.191 21.4447C25.0674 21.118 23.3559 21.3725 22.104 22.2012C20.588 23.2046 19.8853 24.9479 20.0152 27.3827C20.0565 28.1557 20.518 30.5078 21.2446 32.7384C21.6623 34.0205 22.1076 35.0852 22.5682 35.9032C23.2215 37.0631 23.9206 37.7461 24.7053 37.9914C25.1451 38.1287 25.9443 38.2249 26.7849 37.5689C26.8914 37.6898 27.0335 37.81 27.2222 37.9216C27.4617 38.0631 27.7547 38.1788 28.0473 38.2473C29.1016 38.4943 30.0892 38.4326 30.9318 38.0864C30.937 38.2268 30.941 38.3609 30.9443 38.4768C30.9499 38.6647 30.9555 38.849 30.9629 39.0213C31.0128 40.1863 31.0974 41.0922 31.348 41.726C31.3618 41.7609 31.3803 41.814 31.3998 41.8704C31.5248 42.2291 31.734 42.8297 32.2659 43.3C32.8167 43.7872 33.4831 43.9366 34.0933 43.9366C34.3994 43.9366 34.6914 43.899 34.9475 43.8476C35.8605 43.6642 36.8973 43.3849 37.6474 42.3841C38.3566 41.4381 38.7013 40.0132 38.7637 37.7681C38.7718 37.7045 38.7792 37.6439 38.7864 37.5862L38.8012 37.4675L38.9683 37.4813L39.0114 37.484C39.9412 37.5237 41.0782 37.339 41.7765 37.035C42.3283 36.7951 44.0965 35.9204 43.6801 34.7395Z" fill="black"/>
<path d="M42.0901 34.9691C39.3252 35.5036 39.1351 34.6264 39.1351 34.6264C42.0543 30.5676 43.2747 25.4155 42.2216 24.1545C39.3485 20.7149 34.3752 22.3416 34.2922 22.3838L34.2655 22.3883C33.7192 22.2821 33.1079 22.2188 32.4208 22.2083C31.1698 22.1891 30.2208 22.5156 29.5006 23.0273C29.5006 23.0273 20.6286 19.6026 21.0413 27.3345C21.1291 28.9794 23.5574 39.7805 26.4538 36.5181C27.5124 35.3251 28.5354 34.3164 28.5354 34.3164C29.0433 34.6326 29.6515 34.7939 30.2891 34.736L30.3386 34.6966C30.3232 34.8447 30.3303 34.9896 30.3585 35.1611C29.6123 35.9422 29.8316 36.0793 28.34 36.3671C26.8307 36.6586 27.7173 37.1774 28.2962 37.3132C28.998 37.4775 30.6216 37.7104 31.7187 36.2714L31.675 36.4357C31.9673 36.6551 32.1725 37.8628 32.1381 38.9577C32.1038 40.0526 32.0808 40.8043 32.3111 41.3914C32.5416 41.9785 32.7711 43.2996 34.732 42.9059C36.3703 42.5769 37.2194 41.7243 37.3376 40.3021C37.4214 39.2911 37.6111 39.4406 37.623 38.5366L37.7752 38.1087C37.9507 36.7382 37.8031 36.296 38.8124 36.5017L39.0579 36.5219C39.8007 36.5535 40.7732 36.4099 41.3439 36.1613C42.5728 35.627 43.3017 34.7347 42.0899 34.9691H42.0901Z" fill="#336791"/>
<path d="M30.0201 28.0701C29.771 28.0376 29.5453 28.0676 29.4311 28.1487C29.367 28.1942 29.3471 28.247 29.3417 28.2833C29.3274 28.3796 29.3993 28.486 29.4436 28.5409C29.5687 28.6963 29.7515 28.8031 29.9324 28.8267C29.9586 28.8301 29.9848 28.8317 30.0107 28.8317C30.3124 28.8317 30.5867 28.6116 30.6109 28.4491C30.6411 28.2456 30.3259 28.11 30.0201 28.0702M38.2742 28.0765C38.2504 27.917 37.9476 27.8715 37.6601 27.909C37.373 27.9465 37.0947 28.0679 37.1179 28.2278C37.1365 28.3521 37.3761 28.5643 37.6596 28.5643C37.6836 28.5643 37.7078 28.5628 37.7321 28.5596C37.9214 28.535 38.0603 28.4224 38.1263 28.3575C38.2267 28.2585 38.2849 28.1482 38.2742 28.0765Z" fill="white"/>
<path d="M43.01 34.9085C42.9045 34.6098 42.5652 34.5137 42.0014 34.6227C40.3275 34.9464 39.7281 34.7222 39.5313 34.5864C40.8323 32.7291 41.9027 30.4841 42.4801 28.3895C42.7536 27.3973 42.9047 26.4758 42.9171 25.7247C42.9308 24.9003 42.7809 24.2946 42.4719 23.9245C41.2259 22.4327 39.3972 21.6325 37.1836 21.6106C35.6618 21.5945 34.376 21.9594 34.1268 22.0621C33.6019 21.9397 33.0297 21.8647 32.4067 21.8551C31.2643 21.8377 30.2768 22.094 29.4592 22.6164C29.1041 22.4926 28.1863 22.1973 27.0639 22.0279C25.1234 21.7352 23.5815 21.957 22.4811 22.6874C21.1681 23.5591 20.5619 25.1172 20.6793 27.3183C20.7189 28.0589 21.1692 30.337 21.8798 32.5188C22.8153 35.3903 23.8322 37.0159 24.9021 37.3504C25.0273 37.3895 25.1717 37.4169 25.3309 37.4169C25.7212 37.4169 26.1997 37.252 26.6976 36.6912C27.3048 36.0087 27.9329 35.3427 28.5812 34.6941C29.0018 34.9056 29.4639 35.0237 29.9364 35.0355C29.9373 35.0471 29.9386 35.0587 29.9397 35.0702C29.8583 35.1611 29.7787 35.2533 29.7008 35.3468C29.3733 35.7363 29.3052 35.8174 28.2512 36.0207C27.9513 36.0787 27.1551 36.2325 27.1434 36.7555C27.1307 37.3269 28.0847 37.5669 28.1934 37.5924C28.5721 37.6812 28.937 37.7251 29.285 37.7251C30.1313 37.7251 30.8761 37.4644 31.4713 36.9601C31.4529 38.9973 31.5436 41.0048 31.8046 41.6164C32.0185 42.1171 32.5408 43.3408 34.1906 43.3407C34.4327 43.3407 34.6991 43.3143 34.9922 43.2554C36.7141 42.9096 37.4619 42.1964 37.7511 40.6243C37.9059 39.7841 38.1715 37.7779 38.2965 36.7017C38.5601 36.7788 38.8995 36.8141 39.2665 36.8139C40.0318 36.8139 40.9149 36.6616 41.4687 36.4207C42.0909 36.15 43.2136 35.4857 43.01 34.9085ZM38.9095 27.6363C38.9038 27.954 38.8571 28.2424 38.8077 28.5435C38.7544 28.8673 38.6994 29.2021 38.6855 29.6084C38.6719 30.0039 38.7246 30.4151 38.7755 30.8128C38.8785 31.6159 38.9842 32.4428 38.5751 33.2587C38.5071 33.1459 38.4466 33.0293 38.3938 32.9095C38.3429 32.794 38.2325 32.6084 38.0795 32.3516C37.4847 31.3519 36.0915 29.0108 36.8047 28.0556C37.0171 27.7712 37.5562 27.4789 38.9095 27.6363ZM37.2692 22.2539C39.2525 22.2949 40.8215 22.9902 41.9323 24.3202C42.7842 25.3404 41.8461 29.9823 39.1302 33.987C39.1029 33.9544 39.0754 33.922 39.0478 33.8897L39.0134 33.8494C39.7152 32.7634 39.578 31.6889 39.4559 30.7362C39.4056 30.3452 39.3582 29.976 39.3703 29.6291C39.3828 29.2615 39.4347 28.9461 39.4849 28.6412C39.5465 28.2655 39.6093 27.8767 39.592 27.4184C39.6049 27.3704 39.6101 27.3135 39.6033 27.2461C39.5592 26.8066 39.0237 25.4913 37.9322 24.3008C37.3352 23.6497 36.4645 22.921 35.2757 22.4295C35.787 22.3302 36.4862 22.2376 37.2692 22.2539ZM26.1707 36.2807C25.6222 36.8987 25.2435 36.7802 25.1189 36.7414C24.3073 36.4877 23.3655 34.8803 22.5352 32.3314C21.8167 30.1259 21.3969 27.9081 21.3636 27.2862C21.2587 25.3194 21.7675 23.9487 22.876 23.212C24.68 22.0134 27.6458 22.7308 28.8376 23.0947C28.8205 23.1105 28.8027 23.1254 28.7858 23.1415C26.8301 24.9921 26.8764 28.1539 26.8813 28.3472C26.8811 28.4218 26.8878 28.5274 26.8969 28.6726C26.9305 29.2044 26.9932 30.1942 26.8259 31.3151C26.6704 32.3567 27.0131 33.3761 27.7659 34.1122C27.8431 34.1876 27.9243 34.2593 28.0092 34.3271C27.6741 34.6634 26.9459 35.407 26.1707 36.2807ZM28.2606 33.668C27.6538 33.0747 27.3783 32.2496 27.5045 31.4039C27.6811 30.2199 27.6159 29.1887 27.5809 28.6346C27.5759 28.5571 27.5716 28.4891 27.5691 28.4355C27.8548 28.1982 29.1787 27.5335 30.1229 27.7362C30.5537 27.8286 30.8163 28.1036 30.9254 28.5764C31.4903 31.0246 31.0002 32.0449 30.6063 32.8649C30.5252 33.0338 30.4485 33.1935 30.383 33.3586L30.3323 33.4863C30.2038 33.8092 30.0842 34.1094 30.0102 34.3944C29.3651 34.3927 28.7377 34.1344 28.2606 33.6679V33.668ZM28.3596 36.9695C28.1712 36.9255 28.0018 36.8489 27.9024 36.7854C27.9855 36.7488 28.1332 36.6989 28.3894 36.6495C29.6294 36.4104 29.8209 36.2415 30.239 35.744C30.3349 35.6299 30.4436 35.5006 30.5941 35.3431L30.5943 35.3429C30.8184 35.1078 30.9209 35.1477 31.1069 35.22C31.2576 35.2783 31.4044 35.4553 31.4639 35.6501C31.4921 35.7421 31.5237 35.9167 31.4202 36.0526C30.5467 37.1987 29.2737 37.1839 28.3596 36.9695ZM34.8487 42.6277C33.3318 42.9322 32.7948 42.207 32.4408 41.3779C32.2124 40.8427 32.1001 38.4292 32.1797 35.7638C32.1808 35.7283 32.1754 35.6941 32.165 35.6619C32.1556 35.5982 32.1415 35.5353 32.1226 35.4735C32.0041 35.0857 31.7155 34.7613 31.3692 34.6268C31.2316 34.5734 30.9791 34.4754 30.6756 34.5482C30.7403 34.2983 30.8525 34.0162 30.9742 33.7107L31.0253 33.5822C31.0827 33.4373 31.1549 33.2872 31.2311 33.1283C31.6432 32.2704 32.2076 31.0954 31.5951 28.4408C31.3656 27.4465 30.5994 26.9609 29.4378 27.0737C28.7415 27.1412 28.1044 27.4045 27.7866 27.5555C27.7183 27.5879 27.6558 27.6192 27.5974 27.6497C27.6861 26.6479 28.0212 24.7757 29.2746 23.5911C30.0638 22.8455 31.1148 22.4771 32.3954 22.497C34.9185 22.5357 36.5366 23.749 37.4497 24.7601C38.2366 25.6313 38.6626 26.509 38.8327 26.9823C37.5539 26.8605 36.6842 27.097 36.2433 27.6876C35.2842 28.9723 36.7681 31.4659 37.4812 32.6642C37.612 32.8839 37.7249 33.0737 37.7604 33.1544C37.9926 33.6817 38.2933 34.0339 38.5128 34.2908C38.5801 34.3696 38.6453 34.446 38.695 34.5127C38.3077 34.6173 37.612 34.8591 37.6754 36.0674C37.6243 36.6737 37.2607 39.5123 37.076 40.5153C36.8321 41.8403 36.3118 42.3337 34.8487 42.6277V42.6277ZM41.1802 35.8385C40.7842 36.0107 40.1214 36.1399 39.4919 36.1676C38.7964 36.1982 38.4424 36.0947 38.3591 36.031C38.3201 35.278 38.6191 35.1993 38.9357 35.116C38.9854 35.103 39.034 35.0902 39.0808 35.0748C39.1099 35.0971 39.1418 35.1191 39.1768 35.1407C39.7357 35.4863 40.7326 35.5236 42.14 35.2514L42.1555 35.2485C41.9656 35.4148 41.6408 35.638 41.1802 35.8385Z" fill="white"/>
<defs>
<linearGradient id="paint0_linear_5_150" x1="0.625344" y1="0.739744" x2="63.9121" y2="64.0265" gradientUnits="userSpaceOnUse">
<stop stop-color="white"/>
<stop offset="0.765625" stop-color="white" stop-opacity="0"/>
</linearGradient>
<linearGradient id="paint1_linear_5_150" x1="10.2452" y1="10.3589" x2="54.2928" y2="54.4064" gradientUnits="userSpaceOnUse">
<stop stop-color="white"/>
<stop offset="0.828125" stop-color="white" stop-opacity="0"/>
</linearGradient>
</defs>
</svg>
