<svg width="64" height="64" viewBox="0 0 64 64" fill="none" xmlns="http://www.w3.org/2000/svg">
<path d="M32 0.085083C23.4668 0.085083 18.1332 7.17742 16 21.3617C19.2 14.2693 22.9333 11.6098 27.2 13.383C29.6343 14.3944 31.3743 17.3303 33.3003 20.5796C36.4378 25.8734 40.0687 32 48 32C56.5332 32 61.8668 24.9076 64 10.7234C60.8 17.8157 57.0667 20.4753 52.8 18.7021C50.3657 17.6906 48.6257 14.7547 46.6997 11.5055C43.5622 6.21166 39.9313 0.085083 32 0.085083ZM16 32C7.46675 32 2.13325 39.0923 0 53.2766C3.2 46.1842 6.93325 43.5247 11.2 45.2978C13.6342 46.3093 15.3742 49.2452 17.3002 52.4945C20.4377 57.7883 24.0687 63.9149 32 63.9149C40.5332 63.9149 45.8668 56.8225 48 42.6383C44.8 49.7306 41.0667 52.3902 36.8 50.617C34.3657 49.6055 32.6258 46.6696 30.6998 43.4204C27.5623 38.1266 23.9313 32 16 32Z" fill="url(#paint0_linear_5_8)"/>
<defs>
<linearGradient id="paint0_linear_5_8" x1="-1.77792" y1="20.5106" x2="63.9625" y2="43.3141" gradientUnits="userSpaceOnUse">
<stop stop-color="#2298BD"/>
<stop offset="1" stop-color="#0ED7B5"/>
</linearGradient>
</defs>
</svg>
