<svg width="64" height="65" viewBox="0 0 64 65" fill="none" xmlns="http://www.w3.org/2000/svg">
<path d="M29.7364 2.20182C31.3034 1.29709 33.2341 1.29709 34.8011 2.20182L57.1403 15.0993C58.7074 16.0041 59.6727 17.6761 59.6727 19.4856V45.2806C59.6727 47.0901 58.7074 48.7621 57.1403 49.6669L34.8011 62.5644C33.2341 63.4691 31.3034 63.4691 29.7364 62.5644L7.39715 49.6669C5.8301 48.7621 4.86475 47.0901 4.86475 45.2806V19.4856C4.86475 17.6761 5.8301 16.0041 7.39715 15.0993L29.7364 2.20182Z" stroke="url(#paint0_linear_5_156)" stroke-opacity="0.3" stroke-width="1.01296"/>
<path d="M30.5064 11.3765C31.5971 10.7468 32.9409 10.7468 34.0315 11.3765L49.5796 20.3532C50.6703 20.9829 51.3421 22.1466 51.3421 23.406V41.3593C51.3421 42.6187 50.6703 43.7825 49.5796 44.4122L34.0315 53.3888C32.9409 54.0185 31.5971 54.0185 30.5064 53.3888L14.9584 44.4122C13.8677 43.7825 13.1958 42.6187 13.1958 41.3593V23.406C13.1958 22.1466 13.8677 20.9829 14.9584 20.3532L30.5064 11.3765Z" fill="url(#paint1_linear_5_156)" fill-opacity="0.2"/>
<path d="M31.9 21C28.7267 21 26.7433 23.5488 25.95 28.6463C27.14 26.0975 28.5283 25.1417 30.115 25.7789C31.0203 26.1424 31.6673 27.1975 32.3835 28.3652C33.5503 30.2677 34.9005 32.4694 37.85 32.4694C41.0233 32.4694 43.0067 29.9206 43.8 24.8231C42.61 27.3719 41.2217 28.3277 39.635 27.6905C38.7297 27.327 38.0827 26.2719 37.3665 25.1042C36.1997 23.2017 34.8495 21 31.9 21ZM25.95 32.4694C22.7767 32.4694 20.7933 35.0182 20 40.1157C21.19 37.5669 22.5783 36.6111 24.165 37.2483C25.0702 37.6118 25.7173 38.6669 26.4335 39.8346C27.6003 41.7371 28.9505 43.9388 31.9 43.9388C35.0733 43.9388 37.0567 41.39 37.85 36.2926C36.66 38.8414 35.2717 39.7972 33.685 39.1599C32.7797 38.7964 32.1327 37.7413 31.4165 36.5736C30.2497 34.6712 28.8995 32.4694 25.95 32.4694Z" fill="url(#paint2_linear_5_156)"/>
<defs>
<linearGradient id="paint0_linear_5_156" x1="0.625344" y1="0.739744" x2="63.9121" y2="64.0265" gradientUnits="userSpaceOnUse">
<stop stop-color="white"/>
<stop offset="0.765625" stop-color="white" stop-opacity="0"/>
</linearGradient>
<linearGradient id="paint1_linear_5_156" x1="10.2452" y1="10.3589" x2="54.2928" y2="54.4064" gradientUnits="userSpaceOnUse">
<stop stop-color="white"/>
<stop offset="0.828125" stop-color="white" stop-opacity="0"/>
</linearGradient>
<linearGradient id="paint2_linear_5_156" x1="19.3388" y1="28.3404" x2="43.6016" y2="37.0492" gradientUnits="userSpaceOnUse">
<stop stop-color="#2298BD"/>
<stop offset="1" stop-color="#0ED7B5"/>
</linearGradient>
</defs>
</svg>
