<svg width="64" height="64" viewBox="0 0 64 64" fill="none" xmlns="http://www.w3.org/2000/svg">
<path d="M0 32V0H64V64H0" fill="#007ACC"/>
<path d="M14.0312 32.112V34.72H22.3513V58.4H28.2553V34.72H36.5753V32.16C36.5753 30.72 36.5753 29.552 36.5113 29.52C36.5113 29.472 31.4393 29.456 25.2793 29.456L14.0793 29.504V32.128L14.0312 32.112V32.112ZM51.4233 29.44C53.0553 29.824 54.3033 30.56 55.4233 31.728C56.0153 32.368 56.8953 33.488 56.9593 33.776C56.9593 33.872 54.1913 35.744 52.5113 36.784C52.4473 36.832 52.1913 36.56 51.9353 36.144C51.1033 34.96 50.2553 34.448 48.9273 34.352C47.0073 34.224 45.7273 35.232 45.7273 36.912C45.7273 37.424 45.8233 37.712 46.0153 38.128C46.4473 39.008 47.2473 39.536 49.7273 40.624C54.3033 42.592 56.2872 43.888 57.4872 45.744C58.8472 47.824 59.1513 51.088 58.2393 53.536C57.2153 56.208 54.7193 58.016 51.1513 58.608C50.0313 58.8 47.4713 58.768 46.2713 58.56C43.7113 58.08 41.2633 56.8 39.7593 55.152C39.1673 54.512 38.0313 52.8 38.0953 52.688L38.7033 52.304L41.1033 50.912L42.9113 49.856L43.3273 50.416C43.8553 51.248 45.0393 52.368 45.7273 52.752C47.8073 53.824 50.5913 53.68 51.9673 52.432C52.5593 51.888 52.8153 51.312 52.8153 50.512C52.8153 49.776 52.7033 49.44 52.3353 48.88C51.8233 48.176 50.7993 47.6 47.9193 46.32C44.6073 44.912 43.1993 44.016 41.8873 42.64C41.1353 41.808 40.4473 40.512 40.1273 39.44C39.8873 38.512 39.8073 36.24 40.0313 35.328C40.7193 32.128 43.1353 29.888 46.5913 29.248C47.7113 29.024 50.3513 29.12 51.4553 29.408L51.4233 29.44V29.44Z" fill="white"/>
</svg>
