<svg width="64" height="65" viewBox="0 0 64 65" fill="none" xmlns="http://www.w3.org/2000/svg">
<path d="M29.7364 2.20182C31.3034 1.29709 33.2341 1.29709 34.8011 2.20182L57.1403 15.0993C58.7074 16.0041 59.6727 17.6761 59.6727 19.4856V45.2806C59.6727 47.0901 58.7074 48.7621 57.1403 49.6669L34.8011 62.5644C33.2341 63.4691 31.3034 63.4691 29.7364 62.5644L7.39715 49.6669C5.8301 48.7621 4.86475 47.0901 4.86475 45.2806V19.4856C4.86475 17.6761 5.8301 16.0041 7.39715 15.0993L29.7364 2.20182Z" stroke="url(#paint0_linear_5_164)" stroke-opacity="0.3" stroke-width="1.01296"/>
<path d="M30.5064 11.3765C31.5971 10.7468 32.9409 10.7468 34.0315 11.3765L49.5796 20.3532C50.6703 20.9829 51.3421 22.1466 51.3421 23.406V41.3593C51.3421 42.6187 50.6703 43.7825 49.5796 44.4122L34.0315 53.3888C32.9409 54.0185 31.5971 54.0185 30.5064 53.3888L14.9584 44.4122C13.8677 43.7825 13.1958 42.6187 13.1958 41.3593V23.406C13.1958 22.1466 13.8677 20.9829 14.9584 20.3532L30.5064 11.3765Z" fill="url(#paint1_linear_5_164)" fill-opacity="0.2"/>
<path d="M20 32.5V21H43.8V44H20" fill="#007ACC"/>
<path d="M25.2178 32.5402V33.4775H28.3118V41.9875H30.5074V33.4775H33.6014V32.5575C33.6014 32.04 33.6014 31.6202 33.5776 31.6087C33.5776 31.5915 31.6914 31.5857 29.4007 31.5857L25.2357 31.603V32.546L25.2178 32.5402ZM39.123 31.58C39.7299 31.718 40.194 31.9825 40.6105 32.4022C40.8306 32.6322 41.1579 33.0347 41.1817 33.1382C41.1817 33.1727 40.1523 33.8455 39.5276 34.2192C39.5038 34.2365 39.4086 34.1387 39.3134 33.9892C39.004 33.5637 38.6886 33.3797 38.1948 33.3452C37.4808 33.2992 37.0048 33.6615 37.0048 34.2652C37.0048 34.4492 37.0405 34.5527 37.1119 34.7022C37.2725 35.0185 37.57 35.2082 38.4923 35.5992C40.194 36.3065 40.9317 36.7722 41.378 37.4392C41.8837 38.1867 41.9968 39.3597 41.6577 40.2395C41.2769 41.1997 40.3487 41.8495 39.0218 42.0622C38.6053 42.1312 37.6533 42.1197 37.2071 42.045C36.2551 41.8725 35.3447 41.4125 34.7854 40.8202C34.5653 40.5902 34.1428 39.975 34.1666 39.9347L34.3927 39.7967L35.2852 39.2965L35.9576 38.917L36.1123 39.1182C36.3086 39.4172 36.7489 39.8197 37.0048 39.9577C37.7783 40.343 38.8136 40.2912 39.3253 39.8427C39.5454 39.6472 39.6406 39.4402 39.6406 39.1527C39.6406 38.8882 39.599 38.7675 39.4621 38.5662C39.2717 38.3132 38.8909 38.1062 37.8199 37.6462C36.5883 37.1402 36.0647 36.8182 35.5768 36.3237C35.2971 36.0247 35.0413 35.559 34.9223 35.1737C34.833 34.8402 34.8033 34.0237 34.8866 33.696C35.1424 32.546 36.0409 31.741 37.3261 31.511C37.7426 31.4305 38.7243 31.465 39.1349 31.5685L39.123 31.58Z" fill="white"/>
<defs>
<linearGradient id="paint0_linear_5_164" x1="0.625344" y1="0.739744" x2="63.9121" y2="64.0265" gradientUnits="userSpaceOnUse">
<stop stop-color="white"/>
<stop offset="0.765625" stop-color="white" stop-opacity="0"/>
</linearGradient>
<linearGradient id="paint1_linear_5_164" x1="10.2452" y1="10.3589" x2="54.2928" y2="54.4064" gradientUnits="userSpaceOnUse">
<stop stop-color="white"/>
<stop offset="0.828125" stop-color="white" stop-opacity="0"/>
</linearGradient>
</defs>
</svg>
