<svg width="64" height="65" viewBox="0 0 64 65" fill="none" xmlns="http://www.w3.org/2000/svg">
<path d="M29.7364 2.20182C31.3034 1.29709 33.2341 1.29709 34.8011 2.20182L57.1403 15.0993C58.7074 16.0041 59.6727 17.6761 59.6727 19.4856V45.2806C59.6727 47.0901 58.7074 48.7621 57.1403 49.6669L34.8011 62.5644C33.2341 63.4691 31.3034 63.4691 29.7364 62.5644L7.39715 49.6669C5.8301 48.7621 4.86475 47.0901 4.86475 45.2806V19.4856C4.86475 17.6761 5.8301 16.0041 7.39715 15.0993L29.7364 2.20182Z" stroke="url(#paint0_linear_6_169)" stroke-opacity="0.3" stroke-width="1.01296"/>
<path d="M30.5064 11.3765C31.5971 10.7468 32.9409 10.7468 34.0315 11.3765L49.5796 20.3532C50.6703 20.9829 51.3421 22.1466 51.3421 23.406V41.3593C51.3421 42.6187 50.6703 43.7825 49.5796 44.4122L34.0315 53.3888C32.9409 54.0185 31.5971 54.0185 30.5064 53.3888L14.9584 44.4122C13.8677 43.7825 13.1958 42.6187 13.1958 41.3593V23.406C13.1958 22.1466 13.8677 20.9829 14.9584 20.3532L30.5064 11.3765Z" fill="url(#paint1_linear_6_169)" fill-opacity="0.2"/>
<path d="M20.2201 28.8531C20.2201 28.8531 19.6567 28.4535 20.3328 27.9198L21.9079 26.5337C21.9079 26.5337 22.3586 26.0671 22.8352 26.4737L37.3708 37.3037V42.497C37.3708 42.497 37.3638 43.3125 36.3004 43.2224L20.2201 28.8531Z" fill="#2489CA"/>
<path d="M23.967 32.2005L20.2204 35.5526C20.2204 35.5526 19.8354 35.8344 20.2204 36.3381L21.9599 37.8951C21.9599 37.8951 22.3731 38.3317 22.9834 37.835L26.9554 34.8711L23.967 32.2005Z" fill="#1070B3"/>
<path d="M30.5444 32.2283L37.4155 27.0651L37.3709 21.8995C37.3709 21.8995 37.0774 20.7722 36.0985 21.359L26.9551 29.5485L30.5444 32.2283Z" fill="#0877B9"/>
<path d="M36.3005 43.2293C36.6996 43.6313 37.1832 43.4996 37.1832 43.4996L42.5378 40.903C43.2233 40.4432 43.127 39.8726 43.127 39.8726V24.3668C43.127 23.6853 42.4181 23.4497 42.4181 23.4497L37.7771 21.2481C36.763 20.6313 36.0986 21.359 36.0986 21.359C36.0986 21.359 36.9531 20.7537 37.371 21.8995V42.4023C37.371 42.5432 37.3405 42.6818 37.2794 42.8065C37.1574 43.0491 36.8921 43.2755 36.2559 43.1808L36.3005 43.2293Z" fill="#3C99D4"/>
<defs>
<linearGradient id="paint0_linear_6_169" x1="0.625344" y1="0.739744" x2="63.9121" y2="64.0265" gradientUnits="userSpaceOnUse">
<stop stop-color="white"/>
<stop offset="0.765625" stop-color="white" stop-opacity="0"/>
</linearGradient>
<linearGradient id="paint1_linear_6_169" x1="10.2452" y1="10.3589" x2="54.2928" y2="54.4064" gradientUnits="userSpaceOnUse">
<stop stop-color="white"/>
<stop offset="0.828125" stop-color="white" stop-opacity="0"/>
</linearGradient>
</defs>
</svg>
