<svg width="64" height="64" viewBox="0 0 64 64" fill="none" xmlns="http://www.w3.org/2000/svg">
<path d="M1.82813 22.8783C1.82813 22.8783 0.313114 21.7662 2.13114 20.2812L6.36687 16.4243C6.36687 16.4243 7.57889 15.1258 8.86034 16.2571L47.9478 46.3929V60.8437C47.9478 60.8437 47.9289 63.1129 45.0693 62.8622L1.82813 22.8783Z" fill="#2489CA"/>
<path d="M11.9041 32.1928L1.82926 41.5203C1.82926 41.5203 0.793995 42.3045 1.82926 43.7059L6.50688 48.0386C6.50688 48.0386 7.61789 49.2535 9.25916 47.8714L19.94 39.6239L11.9041 32.1928Z" fill="#1070B3"/>
<path d="M29.5914 32.27L48.0683 17.9028L47.9484 3.52912C47.9484 3.52912 47.1593 0.392122 44.5269 2.02491L19.9395 24.8132L29.5914 32.27Z" fill="#0877B9"/>
<path d="M45.0702 62.8815C46.1434 64 47.4438 63.6336 47.4438 63.6336L61.8427 56.4082C63.686 55.129 63.4272 53.5412 63.4272 53.5412V10.3945C63.4272 8.4982 61.5208 7.84251 61.5208 7.84251L49.0408 1.71636C46.3138 6.08513e-06 44.5273 2.02492 44.5273 2.02492C44.5273 2.02492 46.8251 0.340705 47.9488 3.52913V60.5802C47.9488 60.9723 47.8667 61.358 47.7026 61.7051C47.3743 62.3801 46.661 63.01 44.9503 62.7465L45.0702 62.8815Z" fill="#3C99D4"/>
</svg>
